<svg width="32" height="32" viewBox="0 0 32 32" fill="none" xmlns="http://www.w3.org/2000/svg">
<g clip-path="url(#clip0_7_93)">
<path d="M31.2874 9.86881L27.2 7.144V0H4.8V7.144L0.712563 9.86881C0.267188 10.1653 0 10.6651 0 11.2V30.4C0 31.2837 0.71625 32 1.6 32H30.4C31.2837 32 32 31.2837 32 30.4V11.2C32 10.6651 31.7328 10.1653 31.2874 9.86881ZM27.2 9.06669L29.6747 10.7163L27.2 12.3179V9.06669ZM6.4 1.6H25.6V13.3531L16 19.5648L6.4 13.3531V1.6ZM4.8 9.06669V12.3179L2.32531 10.7168L4.8 9.06669ZM30.4 30.4H1.6V12.1531L14.5274 20.5179L2.76588 28.128C2.39469 28.3686 2.28856 28.864 2.52856 29.2341C2.68113 29.472 2.93819 29.6 3.20056 29.6C3.34987 29.6 3.49975 29.5579 3.63419 29.472L16 21.4704L28.3659 29.472C28.5003 29.5579 28.6501 29.6 28.7995 29.6C29.0619 29.6 29.3189 29.472 29.4721 29.2341C29.7121 28.864 29.6054 28.3685 29.2348 28.128L17.4731 20.5173L30.4 12.1531V30.4Z" fill="white"/>
<path d="M24 3.19995H8V4.79995H24V3.19995Z" fill="white"/>
<path d="M24 6.3999H8V7.9999H24V6.3999Z" fill="white"/>
<path d="M16 9.6001H8V11.2001H16V9.6001Z" fill="white"/>
</g>
<defs>
<clipPath id="clip0_7_93">
<rect width="32" height="32" fill="white"/>
</clipPath>
</defs>
</svg>
