<svg width="312" height="131" viewBox="0 0 312 131" fill="none" xmlns="http://www.w3.org/2000/svg">
<rect width="312" height="131" fill="#D9D9D9"/>
<path d="M195.158 68.0624C171.995 54.7004 134.563 54.7004 111.549 68.0624C88.5345 81.4244 88.6681 103.118 111.842 116.49C135.016 129.863 172.437 129.866 195.451 116.49C218.466 103.115 218.332 81.4349 195.158 68.0624Z" fill="#F5F5F5"/>
<path d="M118.287 112.733C120.085 111.685 122.987 111.685 124.774 112.733C126.561 113.781 126.551 115.453 124.753 116.49C122.956 117.528 120.053 117.538 118.266 116.49C116.479 115.442 116.49 113.771 118.287 112.733Z" fill="#E0E0E0"/>
<path d="M129.545 94.3199L150.356 82.3046L166.977 91.8754C167.816 90.9028 168.82 90.086 169.943 89.4624C175.87 86.0407 185.451 86.0407 191.341 89.4624C197.23 92.8841 197.199 98.4359 191.273 101.858C189.994 102.58 188.632 103.142 187.217 103.532L188.886 104.493C189 104.56 189.096 104.655 189.162 104.77C189.228 104.885 189.263 105.016 189.263 105.148C189.263 105.281 189.228 105.411 189.162 105.526C189.096 105.641 189 105.737 188.886 105.803L169.571 116.959C169.112 117.224 168.591 117.363 168.061 117.363C167.53 117.363 167.01 117.224 166.55 116.959L129.545 95.6299C129.43 95.5639 129.334 95.4685 129.267 95.3535C129.201 95.2385 129.165 95.1079 129.165 94.9749C129.165 94.8419 129.201 94.7113 129.267 94.5963C129.334 94.4813 129.43 94.3859 129.545 94.3199Z" fill="#E0E0E0"/>
<path d="M165.845 61.2765L101.511 98.7399L98.5114 97.0081L162.846 59.5447L165.845 61.2765Z" fill="#E0E0E0"/>
<path d="M117.168 106.765L121.52 106.891L125.872 106.765C126.058 109.702 125.484 112.697 124.693 114.159C124.506 114.535 124.204 114.843 123.831 115.036C122.547 115.775 120.475 115.775 119.199 115.036C118.82 114.84 118.516 114.523 118.337 114.135C117.551 112.66 116.982 109.689 117.168 106.765Z" fill="white"/>
<path d="M118.455 104.983C116.749 105.966 116.741 107.562 118.434 108.547C120.126 109.532 122.888 109.532 124.586 108.547C126.283 107.562 126.299 105.966 124.607 104.983C122.914 104.001 120.158 103.998 118.455 104.983Z" fill="#EBEBEB"/>
<path d="M119.128 105.374C117.797 106.142 117.792 107.386 119.113 108.154C120.433 108.921 122.581 108.921 123.912 108.154C125.243 107.386 125.249 106.142 123.928 105.374C122.608 104.606 120.457 104.606 119.128 105.374Z" fill="#E0E0E0"/>
<g opacity="0.15">
<path d="M119.128 105.374C117.797 106.142 117.792 107.386 119.113 108.154C120.433 108.921 122.581 108.921 123.912 108.154C125.243 107.386 125.249 106.142 123.928 105.374C122.608 104.606 120.457 104.606 119.128 105.374Z" fill="black"/>
</g>
<path d="M114.368 88.1997C124.172 91.4092 124.261 97.9697 122.05 102.639C121.491 103.584 119.807 104.093 118.337 98.2841L120.912 98.6142L117.913 97.092L117.127 94.7628L119.629 94.9488L116.453 93.6126C115.87 91.7673 115.173 89.9596 114.368 88.1997Z" fill="#BA68C8"/>
<path opacity="0.2" d="M114.368 88.1997C124.172 91.4092 124.261 97.9697 122.05 102.639C121.491 103.584 119.807 104.093 118.337 98.2841L120.912 98.6142L117.913 97.092L117.127 94.7628L119.629 94.9488L116.453 93.6126C115.87 91.7673 115.173 89.9596 114.368 88.1997Z" fill="black"/>
<path d="M117.14 89.8398C122.312 93.7698 122.778 98.2631 121.316 102.958C121.832 98.8238 122.393 94.6423 117.14 89.8398Z" fill="white"/>
<path d="M130.968 94.8623C121.303 96.2221 120.132 102.316 121.413 107.035C121.774 108.007 123.263 108.761 125.605 103.595L123.153 103.474L126.2 102.555L127.313 100.516L124.955 100.273L128.128 99.56C128.976 97.9368 129.925 96.3679 130.968 94.8623Z" fill="#BA68C8"/>
<path opacity="0.2" d="M130.968 94.8623C121.303 96.2221 120.132 102.316 121.413 107.035C121.774 108.007 123.263 108.761 125.605 103.595L123.153 103.474L126.2 102.555L127.313 100.516L124.955 100.273L128.128 99.56C128.976 97.9368 129.925 96.3679 130.968 94.8623Z" fill="white"/>
<path d="M128.117 95.9287C122.652 98.7243 121.468 102.838 122.05 107.457C122.254 103.516 122.429 99.5286 128.117 95.9287Z" fill="white"/>
<path d="M111.538 97.1444C120.402 97.2911 122.141 102.646 121.512 107.048C121.295 107.965 120.04 108.811 117.36 104.415L119.555 104.032L116.707 103.545L115.476 101.832L117.572 101.347L114.627 101.059C113.679 99.6917 112.647 98.3844 111.538 97.1444Z" fill="#BA68C8"/>
<path d="M114.231 97.7863C119.471 99.6962 120.996 103.27 120.991 107.496C120.365 103.969 119.762 100.396 114.231 97.7863Z" fill="white"/>
<path d="M194.679 20.7111L194.66 27.2664L193.866 27.7275L193.887 20.2552L194.679 20.7111Z" fill="#F0F0F0"/>
<path d="M203.238 32.2182L203.235 33.1378L193.866 27.7275L194.66 27.2664L203.238 32.2182Z" fill="#F5F5F5"/>
<path d="M192.902 28.2777L204.192 34.7963L204.218 25.1154L192.931 18.6021L192.902 28.2777ZM193.866 27.7275L193.887 20.2553L194.673 20.7112L203.256 25.6761L203.238 32.2261V33.1457L193.866 27.7275Z" fill="#E0E0E0"/>
<path d="M192.931 18.5994L193.725 18.1356L205.014 24.6542L204.218 25.1153L192.931 18.5994Z" fill="#F5F5F5"/>
<path d="M205.014 24.6542L204.986 34.3325L204.192 34.7962L204.218 25.1153L205.014 24.6542Z" fill="#F0F0F0"/>
<path d="M194.684 35.4224L194.665 41.9777L193.872 42.4414L193.893 34.9666L194.684 35.4224Z" fill="#F0F0F0"/>
<path d="M203.243 46.9295L203.241 47.8491L193.872 42.4414L194.665 41.9777L203.243 46.9295Z" fill="#F5F5F5"/>
<path d="M192.907 42.989L204.197 49.518L204.226 39.8397L192.936 33.3212L192.907 42.989ZM193.872 42.4414L193.893 34.9665L194.679 35.4224L203.256 40.3742L203.238 46.9242V47.8438L193.872 42.4414Z" fill="#E0E0E0"/>
<path d="M192.936 33.3107L193.73 32.8496L205.02 39.3655L204.226 39.8293L192.936 33.3107Z" fill="#F5F5F5"/>
<path d="M205.02 39.3655L204.991 49.0438L204.197 49.5075L204.226 39.8292L205.02 39.3655Z" fill="#F0F0F0"/>
<path d="M177.884 27.434V25.8411L177.955 25.883L178.089 25.9616C179.265 26.6716 180.447 27.7956 181.544 28.9929C181.725 29.192 181.906 29.3964 182.084 29.5981C183.009 30.6461 183.918 31.7832 184.848 32.8338V35.4067L183.727 34.7595C182.266 31.9667 180.282 29.4799 177.884 27.434Z" fill="#EBEBEB"/>
<path d="M177.866 31.3798V29.2523C178.846 30.2842 179.656 31.4647 180.266 32.75L177.866 31.3798Z" fill="#EBEBEB"/>
<path d="M180.266 32.75C179.661 31.4619 178.855 30.2778 177.879 29.2419V27.4236C180.277 29.4728 182.26 31.9632 183.719 34.7596L180.266 32.75Z" fill="#FAFAFA"/>
<path d="M182.611 25.241L182.448 25.1834C182.147 25.076 181.843 24.9502 181.539 24.8087L181.427 24.7537L181.117 24.6044C180.939 24.5127 180.764 24.4184 180.593 24.3188C180.772 24.4184 180.947 24.5127 181.117 24.6044L181.055 24.5729C180.897 24.4917 180.74 24.4079 180.586 24.3109L180.486 24.2612L180.405 24.214C179.557 23.7103 178.754 23.1344 178.005 22.4927L177.9 22.4036V19.7128C179.608 20.5879 181.288 20.8578 182.642 20.436C183.572 20.1376 184.367 19.5218 184.888 18.6963L184.874 25.676C184.103 25.6373 183.341 25.4909 182.611 25.241Z" fill="#FAFAFA"/>
<path d="M181.55 28.993C180.449 27.7878 179.27 26.6716 178.094 25.9616L177.96 25.883L177.89 25.8411V24.3005C180.168 25.6412 182.279 27.2481 184.178 29.0873C184.406 29.3047 184.631 29.5248 184.859 29.737V32.8339C183.926 31.7859 183.025 30.6593 182.095 29.5982C181.911 29.3964 181.731 29.1921 181.55 28.993Z" fill="#FAFAFA"/>
<path d="M177.892 24.3004V22.4036L177.997 22.4926C178.746 23.1344 179.549 23.7103 180.397 24.214L180.478 24.2611L180.58 24.3188C180.735 24.4079 180.892 24.4917 181.049 24.5808L181.112 24.6122L181.421 24.7616L181.534 24.8166C181.838 24.9581 182.142 25.0786 182.443 25.1912L182.606 25.2489C183.336 25.5023 184.098 25.6522 184.869 25.6943L184.856 29.7448C184.628 29.5326 184.403 29.3125 184.175 29.095C182.278 27.2534 180.169 25.6439 177.892 24.3004Z" fill="#EBEBEB"/>
<path d="M177.913 17.5383V15.5497C178.99 15.2877 179.828 14.5017 180.271 13.3358L182.655 14.7113C182.238 15.6023 181.563 16.3478 180.718 16.8517C179.872 17.3555 178.896 17.5947 177.913 17.5383Z" fill="#FAFAFA"/>
<path d="M182.648 20.436C181.293 20.8578 179.614 20.588 177.905 19.7129V17.5383C178.888 17.5952 179.865 17.3563 180.711 16.8524C181.557 16.3485 182.232 15.6027 182.65 14.7113L184.893 16.0213V18.7094C184.37 19.53 183.575 20.141 182.648 20.436Z" fill="#EBEBEB"/>
<path d="M177.478 31.6051L185.239 36.0853L185.296 15.7855L177.536 11.3053L177.478 31.6051ZM183.724 34.7491L180.266 32.75L177.866 31.3797V29.2523V27.434V25.8411V24.3005V22.4036V19.7129V17.5383V15.5497V11.9813L180.211 13.3358L182.595 14.7113L184.838 16.0213V18.7094L184.875 25.676L184.861 29.7265V32.8234V35.3962L183.724 34.7491Z" fill="white"/>
<path d="M177.918 15.5496V11.9812L180.263 13.3357C179.834 14.5121 178.995 15.2955 177.918 15.5496Z" fill="#EBEBEB"/>
<path d="M177.478 31.6051L185.239 36.0853L185.236 36.6224L177.012 31.875L177.478 31.6051Z" fill="#CACACA"/>
<path d="M177.536 11.3053L177.478 31.6051L177.012 31.8749L177.072 11.0381L177.536 11.3053Z" fill="#F0F0F0"/>
<path d="M175.77 32.5902L186.486 38.776L186.551 15.0624L175.825 8.87659L175.77 32.5902ZM177.025 31.8749L177.08 11.0381L177.544 11.3001L185.304 15.7803L185.247 36.08V36.6198L177.025 31.8749Z" fill="#E0E0E0"/>
<path d="M175.825 8.87662L176.708 8.39978L187.437 14.5935L186.551 15.0703L175.825 8.87662Z" fill="#F5F5F5"/>
<path d="M187.437 14.5934L187.369 38.3096L186.486 38.7838L186.551 15.0702L187.437 14.5934Z" fill="#F0F0F0"/>
<path d="M197.403 23.2001L195.064 25.0419L195.061 26.8419L202.84 31.3326L202.845 29.5326L201.362 26.5904L200.031 27.6226L200.5 29.0846L199.819 27.7877L197.403 23.2001Z" fill="#E0E0E0"/>
<path d="M199.96 24.104C199.594 23.8944 199.295 24.062 199.295 24.4839C199.307 24.7133 199.372 24.9368 199.487 25.1358C199.602 25.3349 199.762 25.5038 199.955 25.6288C200.322 25.841 200.618 25.6707 200.621 25.2489C200.608 25.0198 200.541 24.7969 200.427 24.598C200.312 24.3992 200.152 24.23 199.96 24.104Z" fill="#E0E0E0"/>
<path d="M197.409 37.9114L195.072 39.7532L195.066 41.5532L202.845 46.0439L202.85 44.2465L201.367 41.3017L200.036 42.3339L200.508 43.7959L199.824 42.499L197.409 37.9114Z" fill="#E0E0E0"/>
<path d="M199.966 38.818C199.599 38.6084 199.3 38.7787 199.3 39.1979C199.312 39.4273 199.378 39.6508 199.492 39.8498C199.607 40.0489 199.768 40.2178 199.96 40.3428C200.327 40.555 200.626 40.3847 200.626 39.9629C200.614 39.7336 200.547 39.5105 200.433 39.3116C200.318 39.1127 200.158 38.9436 199.966 38.818Z" fill="#E0E0E0"/>
<path d="M100.406 48.6298L100.395 45.1557L98.5848 44.1234L98.5927 47.5189V47.5949L100.406 48.6298Z" fill="#BA68C8"/>
<path d="M100.521 88.8677L100.406 48.6298L98.5927 47.5818L98.708 87.77C98.6969 87.8969 98.7183 88.0245 98.77 88.1409C98.8218 88.2574 98.9023 88.3587 99.004 88.4354L100.791 89.528C100.695 89.4483 100.621 89.3464 100.574 89.2314C100.527 89.1163 100.509 88.9915 100.521 88.8677Z" fill="#BA68C8"/>
<path opacity="0.2" d="M100.521 88.8677L100.406 48.6298L98.5927 47.5818L98.708 87.77C98.6969 87.8969 98.7183 88.0245 98.77 88.1409C98.8218 88.2574 98.9023 88.3587 99.004 88.4354L100.791 89.528C100.695 89.4483 100.621 89.3464 100.574 89.2314C100.527 89.1163 100.509 88.9915 100.521 88.8677Z" fill="white"/>
<path d="M101.595 89.4808C101.53 89.5201 101.46 89.5526 101.388 89.5778C101.46 89.5521 101.529 89.5196 101.595 89.4808Z" fill="#455A64"/>
<path d="M100.403 45.1505V43.1488C100.422 42.7772 100.529 42.4154 100.715 42.093C100.901 41.7706 101.16 41.4968 101.472 41.2938L162.099 6.28802C162.206 6.21066 162.332 6.16269 162.463 6.1489C162.594 6.13512 162.727 6.15598 162.848 6.20942L161.059 5.10902C160.935 5.04519 160.795 5.01748 160.656 5.02906C160.517 5.04064 160.384 5.09104 160.273 5.17452L99.6538 40.1803C99.3419 40.3833 99.0824 40.6571 98.8966 40.9795C98.7108 41.3019 98.604 41.6637 98.5848 42.0353V44.037V44.1156L100.395 45.1479L100.403 45.1505Z" fill="#BA68C8"/>
<path opacity="0.3" d="M100.403 45.1505V43.1488C100.422 42.7772 100.529 42.4154 100.715 42.093C100.901 41.7706 101.16 41.4968 101.472 41.2938L162.099 6.28802C162.206 6.21066 162.332 6.16269 162.463 6.1489C162.594 6.13512 162.727 6.15598 162.848 6.20942L161.059 5.10902C160.935 5.04519 160.795 5.01748 160.656 5.02906C160.517 5.04064 160.384 5.09104 160.273 5.17452L99.6538 40.1803C99.3419 40.3833 99.0824 40.6571 98.8966 40.9795C98.7108 41.3019 98.604 41.6637 98.5848 42.0353V44.037V44.1156L100.395 45.1479L100.403 45.1505Z" fill="white"/>
<path opacity="0.2" d="M100.406 48.6298L100.395 45.1557L98.5848 44.1234L98.5927 47.5189V47.5949L100.406 48.6298Z" fill="black"/>
<path opacity="0.2" d="M100.406 48.6298L100.395 45.1557L98.5848 44.1234L98.5927 47.5189V47.5949L100.406 48.6298Z" fill="white"/>
<path d="M162.099 6.28806C162.688 5.94746 163.173 6.22256 163.173 6.90376L163.194 8.90806L100.403 45.1505V43.1488C100.422 42.7772 100.529 42.4154 100.715 42.0931C100.901 41.7707 101.16 41.4968 101.472 41.2939L162.099 6.28806Z" fill="#BA68C8"/>
<path d="M158.033 9.59965C158.35 9.41625 158.609 9.56297 158.609 9.92715C158.599 10.1257 158.542 10.319 158.443 10.4911C158.343 10.6633 158.205 10.8095 158.038 10.9175C157.721 11.1009 157.461 10.9542 157.461 10.59C157.471 10.3915 157.528 10.1982 157.628 10.026C157.727 9.85384 157.866 9.7077 158.033 9.59965Z" fill="white"/>
<path d="M159.788 8.58842C160.105 8.40502 160.362 8.55174 160.364 8.91592C160.353 9.1147 160.295 9.308 160.195 9.48008C160.095 9.65217 159.955 9.79819 159.788 9.90628C159.471 10.0897 159.214 9.94296 159.212 9.57878C159.223 9.38 159.281 9.18671 159.381 9.01462C159.481 8.84254 159.621 8.69651 159.788 8.58842Z" fill="white"/>
<path d="M161.536 7.57707C161.853 7.39367 162.109 7.54039 162.109 7.90457C162.101 8.10524 162.045 8.30101 161.945 8.47556C161.846 8.65011 161.706 8.79838 161.538 8.90803C161.221 9.09143 160.964 8.94471 160.962 8.57791C160.971 8.37755 161.028 8.18231 161.128 8.0083C161.228 7.83429 161.367 7.68648 161.536 7.57707Z" fill="white"/>
<path d="M113.029 35.8757C113.265 35.7395 113.482 35.7631 113.595 35.9386L114.166 36.8137C114.279 36.9892 114.496 37.0154 114.732 36.8792L163.173 8.90808V12.3874L100.406 48.6351V45.1558L102.266 44.0816C102.53 43.9118 102.73 43.6593 102.834 43.3637L103.395 41.8336C103.499 41.5389 103.698 41.2872 103.961 41.1184L113.029 35.8757Z" fill="#E0E0E0"/>
<path d="M163.194 12.3848L163.307 52.6227C163.287 52.9939 163.18 53.3551 162.994 53.6771C162.808 53.999 162.549 54.2724 162.238 54.4751L101.595 89.4809C101.003 89.8241 100.521 89.5464 100.521 88.8678L100.406 48.6298L163.194 12.3848Z" fill="#BA68C8"/>
<g opacity="0.4">
<path d="M163.194 12.3848L163.307 52.6227C163.287 52.9939 163.18 53.3551 162.994 53.6771C162.808 53.999 162.549 54.2724 162.238 54.4751L101.595 89.4809C101.003 89.8241 100.521 89.5464 100.521 88.8678L100.406 48.6298L163.194 12.3848Z" fill="white"/>
</g>
<path d="M160.7 11.0485C161.122 10.8049 161.462 10.9988 161.465 11.4835C161.45 11.7461 161.373 12.0014 161.241 12.229C161.109 12.4565 160.925 12.6499 160.705 12.7935L107.566 43.492C107.144 43.7357 106.801 43.5392 106.799 43.0545C106.814 42.7917 106.891 42.5362 107.024 42.3087C107.156 42.0812 107.34 41.8879 107.561 41.7445L160.7 11.0485Z" fill="white"/>
<path d="M101.409 45.4649C101.421 45.4574 101.435 45.4535 101.448 45.4535C101.462 45.4535 101.476 45.4574 101.488 45.4649C101.53 45.4911 101.524 45.5723 101.488 45.6431L101.152 46.1906L102.033 45.6824C102.093 45.6483 102.14 45.6824 102.14 45.7426C102.139 45.7801 102.128 45.8166 102.11 45.8491C102.091 45.8815 102.065 45.9089 102.033 45.9286L101.155 46.4369L101.49 46.5967C101.535 46.6177 101.538 46.6937 101.49 46.767C101.472 46.8028 101.444 46.8328 101.409 46.8535C101.398 46.8591 101.385 46.862 101.372 46.862C101.36 46.862 101.347 46.8591 101.336 46.8535L100.812 46.5915L100.788 46.5705V46.526V46.471L100.809 46.4264L101.333 45.5461C101.351 45.5132 101.378 45.4853 101.409 45.4649Z" fill="#E0E0E0"/>
<path d="M103.314 44.3671C103.325 44.3609 103.338 44.3577 103.351 44.3577C103.363 44.3577 103.376 44.3609 103.387 44.3671L103.927 44.6291L103.948 44.6527V44.6972V44.7496V44.7627L103.93 44.8046L103.39 45.6876C103.372 45.7182 103.347 45.7435 103.317 45.7609C103.305 45.7679 103.292 45.7715 103.279 45.7715C103.265 45.7715 103.252 45.7679 103.241 45.7609C103.199 45.7347 103.201 45.6561 103.241 45.5828L103.573 45.0378L102.693 45.5461C102.635 45.5775 102.588 45.5461 102.588 45.4832C102.59 45.4461 102.6 45.4099 102.618 45.3775C102.636 45.3452 102.662 45.3176 102.693 45.2972L103.573 44.7915L103.238 44.6317C103.193 44.6081 103.191 44.5322 103.238 44.4588C103.254 44.4214 103.28 44.3895 103.314 44.3671Z" fill="#E0E0E0"/>
<path d="M105.122 43.3217C105.175 43.2869 105.234 43.2629 105.297 43.2512C105.36 43.2396 105.424 43.2403 105.486 43.2536L105.567 43.1488C105.582 43.1266 105.602 43.1078 105.625 43.0937C105.643 43.0877 105.664 43.0877 105.682 43.0937C105.719 43.0937 105.737 43.1383 105.73 43.1907L105.685 43.5208C105.68 43.562 105.664 43.601 105.638 43.6335C105.623 43.6549 105.603 43.6728 105.58 43.6859H105.554L105.292 43.754C105.283 43.7568 105.274 43.7576 105.265 43.7562C105.255 43.7548 105.247 43.7513 105.239 43.746C105.231 43.7406 105.225 43.7336 105.221 43.7255C105.216 43.7173 105.214 43.7082 105.213 43.699C105.209 43.6449 105.226 43.5913 105.261 43.5496L105.287 43.5156C105.229 43.5185 105.172 43.5356 105.122 43.5653C105.01 43.6389 104.917 43.7376 104.85 43.8536C104.783 43.9696 104.744 44.0997 104.737 44.2334C104.737 44.4797 104.912 44.5767 105.124 44.4535C105.281 44.3533 105.401 44.2041 105.465 44.0291C105.481 43.9805 105.514 43.9389 105.557 43.9112C105.572 43.901 105.591 43.8963 105.609 43.8981C105.661 43.8981 105.68 43.9636 105.651 44.0422C105.554 44.314 105.37 44.5461 105.127 44.7024C104.797 44.8911 104.524 44.7391 104.524 44.3566C104.536 44.1495 104.597 43.948 104.7 43.7683C104.804 43.5886 104.948 43.4357 105.122 43.3217Z" fill="#E0E0E0"/>
<g opacity="0.3">
<path d="M101.409 45.4649C101.421 45.4574 101.435 45.4535 101.448 45.4535C101.462 45.4535 101.476 45.4574 101.488 45.4649C101.53 45.4911 101.524 45.5723 101.488 45.6431L101.152 46.1906L102.033 45.6824C102.093 45.6483 102.14 45.6824 102.14 45.7426C102.139 45.7801 102.128 45.8166 102.11 45.8491C102.091 45.8815 102.065 45.9089 102.033 45.9286L101.155 46.4369L101.49 46.5967C101.535 46.6177 101.538 46.6937 101.49 46.767C101.472 46.8028 101.444 46.8328 101.409 46.8535C101.398 46.8591 101.385 46.862 101.372 46.862C101.36 46.862 101.347 46.8591 101.336 46.8535L100.812 46.5915L100.788 46.5705V46.526V46.471L100.809 46.4264L101.333 45.5461C101.351 45.5132 101.378 45.4853 101.409 45.4649Z" fill="black"/>
</g>
<g opacity="0.3">
<path d="M103.314 44.3671C103.325 44.3609 103.338 44.3577 103.351 44.3577C103.363 44.3577 103.376 44.3609 103.387 44.3671L103.927 44.6291L103.948 44.6527V44.6972V44.7496V44.7627L103.93 44.8046L103.39 45.6876C103.372 45.7182 103.347 45.7435 103.317 45.7609C103.305 45.7679 103.292 45.7715 103.279 45.7715C103.265 45.7715 103.252 45.7679 103.241 45.7609C103.199 45.7347 103.201 45.6561 103.241 45.5828L103.573 45.0378L102.693 45.5461C102.635 45.5775 102.588 45.5461 102.588 45.4832C102.59 45.4461 102.6 45.4099 102.618 45.3775C102.636 45.3452 102.662 45.3176 102.693 45.2972L103.573 44.7915L103.238 44.6317C103.193 44.6081 103.191 44.5322 103.238 44.4588C103.254 44.4214 103.28 44.3895 103.314 44.3671Z" fill="black"/>
</g>
<g opacity="0.3">
<path d="M105.122 43.3217C105.175 43.2869 105.234 43.2629 105.297 43.2512C105.36 43.2396 105.424 43.2403 105.486 43.2536L105.567 43.1488C105.582 43.1266 105.602 43.1078 105.625 43.0937C105.643 43.0877 105.664 43.0877 105.682 43.0937C105.719 43.0937 105.737 43.1383 105.73 43.1907L105.685 43.5208C105.68 43.562 105.664 43.601 105.638 43.6335C105.623 43.6549 105.603 43.6728 105.58 43.6859H105.554L105.292 43.754C105.283 43.7568 105.274 43.7576 105.265 43.7562C105.255 43.7548 105.247 43.7513 105.239 43.746C105.231 43.7406 105.225 43.7336 105.221 43.7255C105.216 43.7173 105.214 43.7082 105.213 43.699C105.209 43.6449 105.226 43.5913 105.261 43.5496L105.287 43.5156C105.229 43.5185 105.172 43.5356 105.122 43.5653C105.01 43.6389 104.917 43.7376 104.85 43.8536C104.783 43.9696 104.744 44.0997 104.737 44.2334C104.737 44.4797 104.912 44.5767 105.124 44.4535C105.281 44.3533 105.401 44.2041 105.465 44.0291C105.481 43.9805 105.514 43.9389 105.557 43.9112C105.572 43.901 105.591 43.8963 105.609 43.8981C105.661 43.8981 105.68 43.9636 105.651 44.0422C105.554 44.314 105.37 44.5461 105.127 44.7024C104.797 44.8911 104.524 44.7391 104.524 44.3566C104.536 44.1495 104.597 43.948 104.7 43.7683C104.804 43.5886 104.948 43.4357 105.122 43.3217Z" fill="black"/>
</g>
<path d="M138.262 44.933L138.32 65.4528L118.502 76.8944L118.444 56.3719L138.262 44.933Z" fill="#BA68C8"/>
<path d="M160.66 17.0222L160.692 28.5869L133.902 44.0528L133.868 32.4907L160.66 17.0222Z" fill="#BA68C8"/>
<g opacity="0.5">
<path d="M138.262 44.933L138.32 65.4528L118.502 76.8944L118.444 56.3719L138.262 44.933Z" fill="white"/>
</g>
<g opacity="0.5">
<path d="M160.66 17.0222L160.692 28.5869L133.902 44.0528L133.868 32.4907L160.66 17.0222Z" fill="white"/>
</g>
<path d="M116.511 57.488L116.571 78.0105L104.003 85.2653L103.945 64.7454L116.511 57.488Z" fill="#BA68C8"/>
<path d="M160.493 32.095L160.553 52.6174L140.253 64.3367L140.196 43.8169L160.493 32.095Z" fill="#BA68C8"/>
<g opacity="0.3">
<path d="M116.511 57.488L116.571 78.0105L104.003 85.2653L103.945 64.7454L116.511 57.488Z" fill="white"/>
</g>
<g opacity="0.3">
<path d="M160.493 32.095L160.553 52.6174L140.253 64.3367L140.196 43.8169L160.493 32.095Z" fill="white"/>
</g>
<path d="M109.974 46.0701C113.317 44.1417 116.034 45.6902 116.034 49.518C116.034 53.3458 113.346 58.033 110.008 59.9613C106.67 61.8896 103.951 60.3412 103.94 56.5029C103.93 52.6646 106.633 47.9984 109.974 46.0701Z" fill="#BA68C8"/>
<path d="M113.034 49.6516C113.362 49.416 113.59 49.0663 113.673 48.6713C113.757 48.2763 113.689 47.8644 113.485 47.5163C113.669 47.4352 113.819 47.2938 113.912 47.1155C113.95 47.0293 113.962 46.9336 113.946 46.8406C113.93 46.7477 113.886 46.6617 113.82 46.594C113.754 46.5263 113.67 46.4798 113.577 46.4607C113.485 46.4416 113.389 46.4506 113.301 46.4867C113.35 46.3474 113.35 46.1961 113.302 46.0566C113.255 45.9171 113.162 45.7974 113.039 45.7164C112.913 45.6438 112.764 45.6181 112.621 45.644C112.477 45.6699 112.347 45.7456 112.253 45.8579C112.256 45.767 112.23 45.6777 112.178 45.6031C112.126 45.5285 112.051 45.4727 111.965 45.4439C111.791 45.3992 111.608 45.4112 111.441 45.478C111.268 45.5382 111.106 45.6221 110.917 45.6771C110.617 45.7533 110.309 45.7929 110 45.795C109.69 45.798 109.385 45.8791 109.115 46.0308C108.965 46.121 108.851 46.2583 108.788 46.421C108.725 46.5836 108.719 46.7625 108.769 46.9295C108.724 46.8731 108.668 46.8265 108.605 46.7927C108.541 46.7589 108.471 46.7386 108.399 46.733C108.329 46.731 108.258 46.7442 108.193 46.7718C108.128 46.7993 108.07 46.8406 108.022 46.8928C108.216 47.0133 108.402 47.1548 108.596 47.2622C108.486 47.2313 108.368 47.2374 108.262 47.2795C108.155 47.3216 108.066 47.3974 108.006 47.4954C107.916 47.6891 107.881 47.9039 107.904 48.1163C107.93 48.9248 108.073 49.7253 108.329 50.4927C108.463 50.9387 108.753 51.3217 109.146 51.5721L113.034 49.6516Z" fill="#37474F"/>
<path d="M112.405 52.6855L113.32 53.4715L113.804 56.2461C114.197 55.6506 114.547 55.0281 114.852 54.3833C114.436 53.3222 114.103 52.6855 112.405 52.6855Z" fill="#EBEBEB"/>
<path d="M110.008 59.9718C111.58 59.0652 113.005 57.5535 114.079 55.806C113.99 54.3047 113.768 52.6855 112.4 52.6855L108.339 52.7144L107.509 52.8034L107.126 60.7971C108.146 60.803 109.146 60.5166 110.008 59.9718Z" fill="#BA68C8"/>
<g opacity="0.4">
<path d="M110.008 59.9718C111.58 59.0652 113.005 57.5535 114.079 55.806C113.99 54.3047 113.768 52.6855 112.4 52.6855L108.339 52.7144L107.509 52.8034L107.126 60.7971C108.146 60.803 109.146 60.5166 110.008 59.9718Z" fill="white"/>
</g>
<path d="M111.742 53.2253C112.122 54.4357 111.884 56.1073 111.742 56.8802C110.781 55.5702 109.88 54.2288 109.597 53.71L110.938 53.0576L111.742 53.2253Z" fill="#EBEBEB"/>
<path d="M111.182 54.3362L111.512 54.2576C111.674 54.6774 111.808 55.107 111.915 55.544C111.881 55.9895 111.824 56.4329 111.742 56.8723C111.554 56.6103 111.368 56.3483 111.187 56.0994C111.244 55.513 111.242 54.9223 111.182 54.3362Z" fill="#455A64"/>
<path opacity="0.2" d="M111.187 54.4069C111.187 54.3833 111.187 54.3597 111.187 54.3362L111.517 54.2576C111.517 54.2576 111.517 54.2759 111.535 54.3073C111.483 54.3555 111.419 54.3897 111.349 54.4069C111.296 54.4167 111.241 54.4167 111.187 54.4069Z" fill="black"/>
<path d="M111.004 53.4689L110.742 53.3013L110.134 53.6314C110.341 53.7923 110.59 53.8913 110.852 53.917L111.004 53.4689Z" fill="#455A64"/>
<path d="M111.404 53.4035L111.486 53.2253L111.792 53.4192C111.759 53.5351 111.689 53.6372 111.593 53.71L111.404 53.4035Z" fill="#455A64"/>
<path opacity="0.2" d="M111.004 53.4689L110.742 53.3013L110.134 53.6314C110.341 53.7923 110.59 53.8913 110.852 53.917L111.004 53.4689Z" fill="black"/>
<path opacity="0.2" d="M111.404 53.4035L111.486 53.2253L111.792 53.4192C111.759 53.5351 111.689 53.6372 111.593 53.71L111.404 53.4035Z" fill="black"/>
<path d="M110.852 53.917C110.877 53.7602 110.928 53.6087 111.004 53.4689L111.404 53.4034C111.479 53.4982 111.542 53.6011 111.593 53.71C111.601 53.896 111.573 54.0818 111.512 54.2576C111.41 54.3111 111.297 54.3381 111.182 54.3362C111.03 54.2353 110.914 54.0884 110.852 53.917Z" fill="#455A64"/>
<path d="M111.145 53.3275C110.506 53.3275 110.115 53.8253 109.534 53.9982L108.344 52.7144L108.805 52.028C108.897 51.8911 109.017 51.7751 109.156 51.6874V51.9363C109.158 52.0087 109.178 52.0796 109.214 52.1421C109.251 52.2045 109.303 52.2564 109.366 52.2926L111.145 53.3275Z" fill="#E0E0E0"/>
<path d="M111.145 53.3275C111.499 53.2175 112.028 53.6603 112.028 53.6603C111.842 52.6358 111.284 52.2297 111.145 52.2297V53.3275Z" fill="#E0E0E0"/>
<path d="M107.514 52.8035L106.964 52.8899C106.639 52.9437 106.338 53.0946 106.101 53.3229C105.864 53.5512 105.701 53.846 105.635 54.1685C105.327 55.7072 105.207 57.2775 105.276 58.8452L107.791 57.6845C108.056 55.7195 108.572 54.0951 107.514 52.8035Z" fill="#EBEBEB"/>
<path d="M107.765 58.5597V58.3396C107.768 58.3004 107.786 58.2638 107.815 58.2374C107.831 58.2231 107.843 58.2056 107.852 58.1863C107.86 58.1669 107.865 58.146 107.865 58.1248V57.7606C107.865 57.7371 107.86 57.7138 107.851 57.6922C107.842 57.6705 107.828 57.6509 107.812 57.6346C107.795 57.6182 107.775 57.6054 107.753 57.5969C107.731 57.5884 107.708 57.5843 107.684 57.585C106.547 57.5981 105.439 58.1405 105.137 58.7771C105.069 58.9767 105.069 59.1933 105.137 59.3928C104.941 59.6548 105.035 59.7832 105.137 59.9692C105.241 60.0629 105.351 60.1504 105.465 60.2312C106.212 59.0522 107.765 58.5597 107.765 58.5597Z" fill="#E0E0E0"/>
<path opacity="0.2" d="M106.602 58.3055C106.043 58.5493 105.549 58.9219 105.161 59.3928C105.14 59.3253 105.125 59.256 105.116 59.1859C105.493 58.7275 106.019 58.416 106.602 58.3055Z" fill="black"/>
<path opacity="0.2" d="M107.867 58.1641C107.86 58.1903 107.846 58.214 107.826 58.2322C107.796 58.2585 107.779 58.2951 107.776 58.3344V58.3527C106.982 58.4756 106.248 58.8482 105.68 59.4164C106.201 58.6592 107.357 58.2689 107.867 58.1641Z" fill="black"/>
<path d="M110.008 59.9719C110.98 59.3924 111.854 58.6619 112.597 57.8077C111.14 57.8077 109.104 57.8968 107.771 58.3579V58.5597C107.771 58.5597 106.217 59.0522 105.481 60.2391C106.586 61.0461 108.208 61.0146 110.008 59.9719Z" fill="#FFA8A7"/>
<path opacity="0.2" d="M107.875 58.5648L107.902 58.3159L107.776 58.3578V58.5596C107.409 58.6843 107.058 58.8495 106.728 59.0521C106.622 59.192 106.542 59.3488 106.489 59.5159C106.793 59.0862 107.126 58.9133 107.776 58.7456C108.365 58.8373 109.392 59.2696 110.438 59.7071C110.539 59.6425 110.639 59.5744 110.736 59.5028C109.484 59.0652 108.203 58.5884 107.875 58.5648Z" fill="black"/>
<path d="M109.89 51.7345H109.872C109.741 51.6639 109.626 51.5662 109.536 51.4478C109.445 51.3294 109.381 51.1932 109.348 51.0481C109.314 50.9014 109.285 50.7547 109.261 50.6053C109.238 50.456 109.141 50.6053 109.141 50.6053C109.141 50.6053 109.141 50.9328 109.156 51.3206C109.156 51.5276 109.156 51.7476 109.172 51.9494C109.173 52.0219 109.193 52.0929 109.23 52.1554C109.266 52.2179 109.319 52.2697 109.382 52.3057L111.156 53.3406V52.0804C110.715 52.0526 110.284 51.9349 109.89 51.7345Z" fill="#FFA8A7"/>
<path d="M109.458 51.5095V51.5066L109.461 51.5095H109.458Z" fill="#FFA8A7"/>
<path opacity="0.2" d="M109.636 51.7083C109.533 51.5731 109.459 51.4179 109.419 51.2524C109.515 51.454 109.674 51.6192 109.872 51.724H109.89C110.282 51.9185 110.709 52.0317 111.145 52.0568V52.4C110.892 52.3782 110.642 52.3254 110.401 52.2428C110.101 52.14 109.836 51.9548 109.636 51.7083Z" fill="black"/>
<path d="M113.152 47.6998C113.297 48.7983 113.225 49.9145 112.94 50.9852C112.885 51.2219 112.797 51.4495 112.678 51.6612C112.561 51.8731 112.376 52.0399 112.154 52.1354C111.864 52.2115 111.56 52.2115 111.271 52.1354C110.729 52.0711 110.204 51.9096 109.72 51.6586C109.481 51.528 109.281 51.3351 109.143 51.1003C109.004 50.8654 108.932 50.5976 108.934 50.325C108.802 50.4069 108.651 50.4541 108.496 50.4624C108.341 50.4706 108.186 50.4396 108.046 50.3722C107.907 50.2973 107.79 50.1891 107.705 50.0573C107.619 49.9254 107.568 49.7743 107.556 49.6176C107.527 49.4951 107.538 49.3664 107.589 49.2511C107.639 49.1357 107.726 49.0398 107.835 48.9778C107.945 48.9158 108.072 48.891 108.196 48.9071C108.321 48.9233 108.438 48.9795 108.528 49.0674C108.669 49.1891 108.791 49.3313 108.889 49.4892C108.935 49.5657 108.997 49.6318 109.07 49.6831C109.108 49.7112 109.154 49.7263 109.201 49.7263C109.248 49.7263 109.294 49.7112 109.332 49.6831C109.362 49.647 109.384 49.605 109.396 49.5598C109.408 49.5146 109.41 49.4673 109.403 49.4211L109.337 48.732C109.335 48.6784 109.347 48.625 109.374 48.5785C109.401 48.532 109.441 48.4943 109.489 48.47C109.632 48.3938 109.742 48.268 109.798 48.1163C109.848 47.9836 109.877 47.844 109.885 47.7024C109.887 47.6758 109.895 47.6501 109.909 47.6274C109.923 47.6046 109.942 47.5855 109.965 47.5715C109.988 47.5574 110.013 47.5489 110.04 47.5466C110.067 47.5444 110.093 47.5483 110.118 47.5583C111.091 47.9137 112.15 47.9631 113.152 47.6998Z" fill="#FFA8A7"/>
<path d="M111.63 49.3687L112.251 50.4088L111.512 50.5477L111.63 49.3687Z" fill="#F28F8F"/>
<path d="M110.794 50.9066L111.355 51.1686C111.307 51.232 111.239 51.2781 111.163 51.2998C111.086 51.3216 111.004 51.3178 110.93 51.2891C110.868 51.2497 110.821 51.1906 110.796 51.1213C110.772 51.052 110.771 50.9764 110.794 50.9066Z" fill="#F28F8F"/>
<path opacity="0.3" d="M110.794 50.9066L111.355 51.1686C111.307 51.232 111.239 51.2781 111.163 51.2998C111.086 51.3216 111.004 51.3178 110.93 51.2891C110.868 51.2497 110.821 51.1906 110.796 51.1213C110.772 51.052 110.771 50.9764 110.794 50.9066Z" fill="black"/>
<path d="M111.132 51.318C111.067 51.332 110.999 51.3256 110.938 51.2996C110.887 51.2706 110.845 51.2271 110.818 51.1745C110.791 51.1218 110.78 51.0624 110.786 51.0036C110.867 51.0028 110.946 51.0306 111.009 51.0822C111.079 51.1417 111.123 51.2263 111.132 51.318Z" fill="#F28F8F"/>
<path d="M110.563 49.4079C110.559 49.4498 110.567 49.4921 110.587 49.5293C110.606 49.5666 110.636 49.5972 110.673 49.6172C110.71 49.6373 110.753 49.6459 110.795 49.6419C110.836 49.6379 110.876 49.6215 110.909 49.5949C110.941 49.5682 110.965 49.5324 110.978 49.4921C110.99 49.4518 110.99 49.4088 110.977 49.3686C110.965 49.3283 110.941 49.2926 110.908 49.266C110.876 49.2394 110.836 49.2232 110.794 49.2193C110.738 49.2142 110.683 49.2311 110.64 49.2664C110.597 49.3017 110.569 49.3525 110.563 49.4079Z" fill="#263238"/>
<path d="M112.34 49.518C112.335 49.5599 112.343 49.6022 112.363 49.6394C112.383 49.6767 112.413 49.7073 112.45 49.7274C112.487 49.7474 112.529 49.756 112.571 49.752C112.613 49.748 112.653 49.7316 112.685 49.705C112.718 49.6783 112.742 49.6425 112.754 49.6022C112.766 49.5619 112.766 49.5189 112.754 49.4787C112.741 49.4384 112.717 49.4027 112.685 49.3761C112.652 49.3495 112.612 49.3333 112.57 49.3294C112.515 49.3243 112.46 49.3412 112.416 49.3765C112.373 49.4118 112.346 49.4626 112.34 49.518Z" fill="#263238"/>
<path d="M112.628 48.7005L113.063 49.0699C113.09 49.0146 113.098 48.9523 113.088 48.8918C113.078 48.8312 113.049 48.7754 113.005 48.732C112.952 48.6918 112.888 48.6676 112.821 48.662C112.754 48.6564 112.688 48.6698 112.628 48.7005Z" fill="#263238"/>
<path d="M110.828 48.4935L110.328 48.7555C110.313 48.6961 110.316 48.6334 110.338 48.5761C110.36 48.5188 110.4 48.4698 110.451 48.4359C110.513 48.4094 110.581 48.4007 110.648 48.4109C110.714 48.4211 110.777 48.4497 110.828 48.4935Z" fill="#263238"/>
<g opacity="0.5">
<path d="M125.754 44.485L125.757 45.0719L118.368 49.3163V48.7294L125.754 44.485Z" fill="white"/>
<path d="M127.138 47.291L127.14 47.8779L118.379 52.9162V52.3293L127.138 47.291Z" fill="white"/>
<path d="M128.445 45.3391L128.448 45.9234L118.376 51.7188L118.374 51.1319L128.445 45.3391Z" fill="white"/>
<path d="M130.515 40.5393L130.517 41.1236L118.366 48.119L118.363 47.5347L130.515 40.5393Z" fill="white"/>
<path d="M131.977 38.4852L131.979 39.0721L118.363 46.9138L118.36 46.3269L131.977 38.4852Z" fill="white"/>
<path d="M125.372 40.052L125.377 41.2258L118.358 45.2789L118.355 44.1025L125.372 40.052Z" fill="white"/>
</g>
<path d="M143.497 28.9536L143.502 30.3239L135.912 34.7176L135.907 33.3474L143.497 28.9536Z" fill="#BA68C8"/>
<path d="M158.116 22.7809L158.119 23.6167L135.917 36.3892L135.915 35.5534L158.116 22.7809Z" fill="#BA68C8"/>
<g opacity="0.3">
<path d="M143.497 28.9536L143.502 30.3239L135.912 34.7176L135.907 33.3474L143.497 28.9536Z" fill="white"/>
<path d="M158.116 22.7809L158.119 23.6167L135.917 36.3892L135.914 35.5534L158.116 22.7809Z" fill="white"/>
<path d="M156.487 28.6837L156.489 29.5221L135.93 41.4117L135.928 40.5759L156.487 28.6837Z" fill="white"/>
<path d="M158.127 26.1293L158.13 26.9677L135.925 39.7402L135.922 38.9018L158.127 26.1293Z" fill="white"/>
<path d="M153.083 27.3475L153.086 28.1833L135.92 38.0633V37.2276L153.083 27.3475Z" fill="white"/>
</g>
<g opacity="0.5">
<path d="M110.252 63.087L110.254 64.3394L105.413 67.1349L105.41 65.8826L110.252 63.087Z" fill="white"/>
<path d="M115.072 62.3115L115.075 62.901L105.415 68.4764V67.8869L115.072 62.3115Z" fill="white"/>
<path d="M115.075 63.4905L115.078 64.08L105.42 69.6553L105.418 69.0658L115.075 63.4905Z" fill="white"/>
<path d="M112.277 67.9314L112.28 69.1838L105.431 73.14L105.426 71.885L112.277 67.9314Z" fill="white"/>
<path d="M110.249 67.4572L110.252 68.0467L105.423 70.8343L105.42 70.2448L110.249 67.4572Z" fill="white"/>
<path d="M108.061 80.7458L108.064 81.3353L105.457 82.8392L105.454 82.2523L108.061 80.7458Z" fill="white"/>
<path d="M115.109 75.498L115.112 76.0875L105.454 81.6629L105.452 81.0734L115.109 75.498Z" fill="white"/>
<path d="M115.107 74.319L115.109 74.9085L105.452 80.4838L105.449 79.8943L115.107 74.319Z" fill="white"/>
<path d="M109.639 75.4691L109.644 76.7189L105.447 79.1424L105.444 77.89L109.639 75.4691Z" fill="white"/>
<path d="M113.377 71.6624L113.38 72.2519L105.441 76.8369L105.439 76.2474L113.377 71.6624Z" fill="white"/>
<path d="M115.093 69.4929V70.0824L105.436 75.6578V75.0683L115.093 69.4929Z" fill="white"/>
<path d="M115.088 68.3165L115.091 68.906L105.433 74.4814L105.431 73.8919L115.088 68.3165Z" fill="white"/>
</g>
<path d="M131.141 55.2872L127.203 62.7647L126.09 64.8817L126.857 62.4975L124.688 60.8128L122.27 65.6126L122.28 68.5444L134.961 61.2241L134.953 58.2897L131.141 55.2872Z" fill="#BA68C8"/>
<path d="M126.98 59.2513C127.295 59.0462 127.557 58.7696 127.745 58.4441C127.932 58.1185 128.04 57.7532 128.06 57.378C128.06 56.6916 127.572 56.4165 126.975 56.7597C126.661 56.9643 126.4 57.2401 126.212 57.5647C126.024 57.8892 125.916 58.2535 125.896 58.6278C125.898 59.3168 126.386 59.5946 126.98 59.2513Z" fill="#BA68C8"/>
<g opacity="0.3">
<path d="M131.141 55.2872L127.203 62.7647L126.09 64.8817L126.857 62.4975L124.688 60.8128L122.27 65.6126L122.28 68.5444L134.961 61.2241L134.953 58.2897L131.141 55.2872Z" fill="white"/>
<path d="M126.98 59.2513C127.295 59.0462 127.557 58.7696 127.745 58.4441C127.932 58.1185 128.04 57.7532 128.06 57.378C128.06 56.6916 127.572 56.4165 126.975 56.7597C126.661 56.9643 126.4 57.2401 126.212 57.5647C126.024 57.8892 125.916 58.2535 125.896 58.6278C125.898 59.3168 126.386 59.5946 126.98 59.2513Z" fill="white"/>
</g>
<path d="M153.584 42.5751L149.649 50.0499L148.535 52.1669L149.303 49.7827L147.131 48.098L144.715 52.8979L144.723 55.8323L157.406 48.5094L157.396 45.5776L153.584 42.5751Z" fill="#BA68C8"/>
<path d="M149.426 46.5365C149.74 46.3325 150.001 46.0571 150.188 45.7329C150.375 45.4087 150.483 45.0449 150.503 44.6711C150.503 43.9846 150.015 43.7069 149.418 44.0527C149.103 44.2558 148.841 44.5309 148.654 44.8553C148.467 45.1797 148.36 45.5441 148.341 45.9182C148.341 46.6046 148.829 46.8823 149.426 46.5365Z" fill="#BA68C8"/>
<g opacity="0.5">
<path d="M153.584 42.5751L149.649 50.0499L148.535 52.1669L149.303 49.7827L147.131 48.098L144.715 52.8979L144.723 55.8323L157.406 48.5094L157.396 45.5776L153.584 42.5751Z" fill="white"/>
<path d="M149.426 46.5365C149.74 46.3325 150.001 46.0571 150.188 45.7329C150.375 45.4087 150.483 45.0449 150.503 44.6711C150.503 43.9846 150.015 43.7069 149.418 44.0527C149.103 44.2558 148.841 44.5309 148.654 44.8553C148.467 45.1797 148.36 45.5441 148.341 45.9182C148.341 46.6046 148.829 46.8823 149.426 46.5365Z" fill="white"/>
</g>
<path d="M156.487 28.6838L156.489 29.5222L135.93 41.4118L135.928 40.576L156.487 28.6838Z" fill="#BA68C8"/>
<path d="M158.127 26.1293L158.13 26.9677L135.925 39.7402L135.922 38.9018L158.127 26.1293Z" fill="#BA68C8"/>
<path d="M153.083 27.3475L153.086 28.1833L135.92 38.0633V37.2276L153.083 27.3475Z" fill="#BA68C8"/>
<path d="M174.214 97.988L174.9 98.4255H174.916C175.041 98.4801 175.178 98.5014 175.313 98.4871C175.449 98.4729 175.578 98.4237 175.689 98.3443C176.008 98.1366 176.273 97.8566 176.463 97.527C176.654 97.1974 176.764 96.8275 176.784 96.4474C176.797 96.3148 176.776 96.1811 176.721 96.0593C176.667 95.9376 176.582 95.8321 176.475 95.7531L176.273 95.6247L182.847 92.955C182.854 93.0343 182.88 93.1106 182.923 93.1773C182.967 93.2441 183.026 93.2991 183.096 93.3375L182.503 98.5067V99.2089C182.238 99.4232 182.02 99.6908 181.863 99.9945C181.707 100.298 181.616 100.631 181.597 100.972C181.582 101.111 181.607 101.251 181.667 101.377C181.728 101.503 181.822 101.61 181.94 101.685L182.629 102.122H182.642C182.767 102.177 182.904 102.199 183.039 102.185C183.175 102.171 183.304 102.123 183.415 102.044C183.735 101.837 184 101.557 184.191 101.227C184.381 100.897 184.491 100.527 184.51 100.147C184.522 100.015 184.5 99.8817 184.446 99.7603C184.393 99.6389 184.309 99.533 184.204 99.4526L183.507 99.0124C183.398 98.9464 183.27 98.9179 183.143 98.9312L183.858 93.534C184.021 93.5322 184.183 93.5057 184.337 93.4554L190.563 96.8195L190.206 97.0448C190.099 97.1237 190.014 97.2293 189.96 97.351C189.905 97.4727 189.884 97.6065 189.897 97.7391C189.917 98.1191 190.027 98.489 190.218 98.8186C190.408 99.1482 190.673 99.4283 190.992 99.636C191.104 99.7177 191.236 99.7683 191.374 99.7825C191.512 99.7968 191.652 99.7742 191.778 99.7172H191.794L192.48 99.2796C192.599 99.2049 192.693 99.0985 192.754 98.9725C192.815 98.8465 192.839 98.706 192.824 98.567C192.805 98.229 192.716 97.8986 192.563 97.5969C192.409 97.2951 192.195 97.0286 191.933 96.8142V95.7295L186.135 92.2842L189.192 91.514C188.991 91.8419 188.879 92.2167 188.867 92.6013C188.852 92.74 188.876 92.8803 188.936 93.0063C188.996 93.1323 189.09 93.2388 189.208 93.3139L189.894 93.7514H189.908C190.034 93.8101 190.173 93.8336 190.312 93.8193C190.45 93.805 190.582 93.7535 190.694 93.6702C191.012 93.4629 191.278 93.1834 191.468 92.8542C191.658 92.525 191.768 92.1556 191.789 91.776C191.8 91.6435 191.778 91.5104 191.724 91.389C191.67 91.2675 191.586 91.1618 191.48 91.0817L190.722 90.652C190.644 90.6071 190.556 90.5795 190.466 90.5709C190.375 90.5623 190.284 90.573 190.198 90.6022V90.4267L189.826 90.3009L184.848 90.5629V89.6852C184.901 89.6639 184.953 89.6394 185.003 89.6118C185.138 89.5517 185.254 89.457 185.341 89.3374C185.427 89.2178 185.481 89.0775 185.495 88.9306V83.1771H182.179V88.9202C182.191 89.0666 182.243 89.2069 182.328 89.3267C182.413 89.4464 182.529 89.5413 182.663 89.6014C182.716 89.6307 182.77 89.6569 182.826 89.68V90.4162L179.236 89.6302L179.066 89.7009V90.3612L178.369 90.8039C178.264 90.8844 178.18 90.9902 178.126 91.1116C178.073 91.233 178.051 91.3661 178.063 91.4982C178.087 92.0107 178.276 92.5015 178.602 92.8973L175.136 94.4693V95.2894C175.086 95.3098 175.038 95.3334 174.992 95.3601C174.673 95.5672 174.408 95.8468 174.217 96.176C174.027 96.5052 173.917 96.8747 173.897 97.2544C173.875 97.3941 173.893 97.5373 173.949 97.6672C174.005 97.797 174.097 97.9083 174.214 97.988ZM176.294 94.2728L178.807 93.1541L175.401 94.6658L176.294 94.2728ZM180.748 91.4485L181.256 91.7105L180.905 91.8677C180.857 91.7196 180.797 91.5758 180.724 91.438L180.748 91.4485Z" fill="#E0E0E0"/>
<path d="M190.885 92.0354L191.435 91.0948L190.722 90.652C190.598 90.5909 190.458 90.565 190.32 90.577C190.181 90.589 190.049 90.6385 189.936 90.7201C189.618 90.9271 189.352 91.2067 189.162 91.5359C188.972 91.8652 188.863 92.2348 188.844 92.6144C188.828 92.7532 188.852 92.8935 188.912 93.0194C188.972 93.1454 189.067 93.252 189.184 93.327L189.887 93.7724L190.466 92.7795C190.645 92.5563 190.787 92.3048 190.885 92.0354Z" fill="#37474F"/>
<path d="M190.641 91.1759C191.246 90.8248 191.742 91.1052 191.744 91.8021C191.724 92.1818 191.614 92.5512 191.423 92.8803C191.233 93.2095 190.968 93.4891 190.649 93.6964C190.044 94.0474 189.549 93.7671 189.546 93.0702C189.567 92.6905 189.676 92.3211 189.867 91.9919C190.057 91.6628 190.322 91.3832 190.641 91.1759Z" fill="#455A64"/>
<path d="M178.893 91.7681L178.343 90.8249L179.058 90.3716C179.183 90.3095 179.322 90.2828 179.46 90.2944C179.599 90.3059 179.732 90.3553 179.844 90.4371C180.162 90.6448 180.427 90.9245 180.618 91.2536C180.808 91.5827 180.918 91.9519 180.939 92.3314C180.954 92.4707 180.929 92.6113 180.869 92.7375C180.808 92.8638 180.714 92.9708 180.596 93.0466L179.894 93.4946L179.315 92.5017C179.136 92.2812 178.994 92.0335 178.893 91.7681Z" fill="#37474F"/>
<path d="M179.137 90.893C178.531 90.5446 178.036 90.8223 178.036 91.5192C178.056 91.8991 178.166 92.2689 178.355 92.5985C178.545 92.9281 178.81 93.2083 179.129 93.4161C179.737 93.7645 180.229 93.4842 180.232 92.7873C180.211 92.4076 180.102 92.0381 179.911 91.7089C179.721 91.3797 179.456 91.1002 179.137 90.893Z" fill="#455A64"/>
<path d="M182.826 89.4337H184.864V92.9445C184.854 93.034 184.821 93.1193 184.768 93.1923C184.715 93.2653 184.645 93.3234 184.563 93.3611C184.34 93.4747 184.093 93.534 183.842 93.534C183.592 93.534 183.345 93.4747 183.122 93.3611C183.041 93.3227 182.971 93.2643 182.919 93.1913C182.868 93.1184 182.835 93.0334 182.826 92.9445V89.4337Z" fill="#EBEBEB"/>
<path d="M190.201 90.4161V91.2545L184.864 92.5986V90.8275L190.201 90.4161Z" fill="#E0E0E0"/>
<path d="M190.201 90.4162L189.829 90.2904L184.864 90.5524V90.8275L190.201 90.4162Z" fill="#F5F5F5"/>
<path d="M190.738 98.0037L190.188 97.0605L190.901 96.6072C191.025 96.5446 191.164 96.5175 191.303 96.5291C191.441 96.5407 191.574 96.5904 191.687 96.6727C192.006 96.8794 192.272 97.1588 192.462 97.4881C192.652 97.8174 192.762 98.1871 192.782 98.567C192.797 98.706 192.773 98.8465 192.712 98.9725C192.651 99.0985 192.557 99.2049 192.438 99.2796L191.752 99.7329L191.173 98.7399C190.988 98.5202 190.841 98.2714 190.738 98.0037Z" fill="#37474F"/>
<path d="M190.982 97.1286C190.374 96.7775 189.881 97.0578 189.879 97.7547C189.899 98.1348 190.009 98.5047 190.199 98.8343C190.39 99.1639 190.655 99.4439 190.974 99.6516C191.579 100 192.074 99.7197 192.074 99.0228C192.054 98.6433 191.945 98.2739 191.755 97.9447C191.565 97.6155 191.3 97.3358 190.982 97.1286Z" fill="#455A64"/>
<path d="M183.63 100.396L184.18 99.4525L183.465 98.9993C183.34 98.9372 183.201 98.9105 183.063 98.9221C182.924 98.9336 182.791 98.983 182.679 99.0648C182.36 99.2717 182.094 99.5513 181.904 99.8805C181.714 100.21 181.604 100.579 181.584 100.959C181.569 101.098 181.594 101.238 181.654 101.364C181.715 101.49 181.809 101.597 181.927 101.672L182.629 102.12L183.208 101.127C183.388 100.908 183.53 100.661 183.63 100.396Z" fill="#37474F"/>
<path d="M183.386 99.5206C183.992 99.1696 184.484 99.4499 184.487 100.147C184.467 100.527 184.357 100.897 184.167 101.227C183.977 101.557 183.711 101.836 183.392 102.044C182.786 102.392 182.294 102.112 182.291 101.415C182.311 101.035 182.42 100.665 182.611 100.336C182.801 100.007 183.067 99.7271 183.386 99.5206Z" fill="#455A64"/>
<path d="M175.922 96.6989L176.472 95.7557L175.77 95.3024C175.646 95.2398 175.506 95.2127 175.368 95.2243C175.229 95.2358 175.096 95.2856 174.984 95.3679C174.665 95.575 174.4 95.8546 174.209 96.1838C174.019 96.513 173.909 96.8825 173.889 97.2622C173.874 97.4012 173.898 97.5417 173.958 97.6677C174.019 97.7937 174.114 97.9001 174.232 97.9748L174.934 98.4228L175.513 97.4298C175.688 97.2099 175.826 96.963 175.922 96.6989Z" fill="#37474F"/>
<path d="M175.678 95.8239C176.286 95.4728 176.779 95.7531 176.781 96.4501C176.761 96.8301 176.651 97.2 176.461 97.5296C176.271 97.8592 176.005 98.1392 175.686 98.3469C175.081 98.6954 174.586 98.4151 174.586 97.7181C174.605 97.3385 174.714 96.9689 174.904 96.6397C175.094 96.3104 175.359 96.0308 175.678 95.8239Z" fill="#455A64"/>
<path d="M191.485 95.9627V97.3198L184.337 93.458V91.5873L191.485 95.9627Z" fill="#E0E0E0"/>
<path d="M191.899 95.7322L184.746 91.4825L184.337 91.5873L191.485 95.9627L191.899 95.7322Z" fill="#F5F5F5"/>
<path d="M191.899 97.0867L191.485 97.3199V95.9627L191.899 95.7322V97.0867Z" fill="#F0F0F0"/>
<path d="M183.858 91.5873L182.986 98.4962V99.7329L183.858 93.5339V91.5873Z" fill="#E0E0E0"/>
<path d="M182.985 98.4962H182.482V99.7302H182.985V98.4962Z" fill="#F0F0F0"/>
<path d="M182.482 98.4962L183.274 91.5873H183.858L182.985 98.4962H182.482Z" fill="#F5F5F5"/>
<path d="M175.395 94.6658V95.9626L182.828 92.9444V91.3567L175.395 94.6658Z" fill="#E0E0E0"/>
<path d="M175.11 95.7714L175.395 95.9627V94.6658L175.11 94.4797V95.7714Z" fill="#F0F0F0"/>
<path d="M176.281 94.2728L175.395 94.6658L175.11 94.4798L182.828 91.0031V91.3568L176.281 94.2728Z" fill="#F5F5F5"/>
<path d="M179.066 89.7114V90.5603L181.233 91.721L182.828 91.0031V90.6546L179.066 89.7114Z" fill="#E0E0E0"/>
<path d="M179.066 89.7114L179.236 89.6406L182.828 90.4161V90.6546L179.066 89.7114Z" fill="#F5F5F5"/>
<path d="M182.179 83.1771H185.511V88.9202C185.496 89.067 185.443 89.2073 185.356 89.327C185.27 89.4466 185.153 89.5412 185.019 89.6014C184.654 89.7879 184.25 89.8851 183.84 89.8851C183.43 89.8851 183.026 89.7879 182.661 89.6014C182.526 89.5413 182.411 89.4464 182.326 89.3267C182.24 89.2069 182.189 89.0666 182.176 88.9202L182.179 83.1771Z" fill="#E0E0E0"/>
<path d="M169.052 73.9442C169.237 74.2233 169.484 74.4564 169.773 74.6254L183.352 81.8382C183.802 82.077 184.303 82.2042 184.812 82.2092C185.321 82.2143 185.824 82.0969 186.279 81.8671L195.792 77.0489C196.394 76.7438 196.926 76.3156 197.352 75.792C197.778 75.2685 198.089 74.6613 198.265 74.0097L202.858 57.0504C202.934 57.074 203.01 57.1002 203.089 57.1212C203.282 57.1841 203.483 57.2151 203.686 57.2129H203.715L198.265 77.3371C198.089 77.9886 197.778 78.5959 197.352 79.1195C196.926 79.643 196.394 80.0712 195.792 80.3763L186.279 85.1945C185.824 85.4243 185.321 85.5417 184.812 85.5366C184.303 85.5316 183.802 85.4044 183.352 85.1656L169.773 77.9528C168.418 77.1773 168.29 75.1022 169.052 73.9442Z" fill="#BA68C8"/>
<path opacity="0.3" d="M169.052 73.9442C169.237 74.2233 169.484 74.4564 169.773 74.6254L183.352 81.8382C183.802 82.077 184.303 82.2042 184.812 82.2092C185.321 82.2143 185.824 82.0969 186.279 81.8671L195.792 77.0489C196.394 76.7438 196.926 76.3156 197.352 75.792C197.778 75.2685 198.089 74.6613 198.265 74.0097L202.858 57.0504C202.934 57.074 203.01 57.1002 203.089 57.1212C203.282 57.1841 203.483 57.2151 203.686 57.2129H203.715L198.265 77.3371C198.089 77.9886 197.778 78.5959 197.352 79.1195C196.926 79.643 196.394 80.0712 195.792 80.3763L186.279 85.1945C185.824 85.4243 185.321 85.5417 184.812 85.5366C184.303 85.5316 183.802 85.4044 183.352 85.1656L169.773 77.9528C168.418 77.1773 168.29 75.1022 169.052 73.9442Z" fill="black"/>
<path d="M169.686 73.3312L179.527 68.2825L192.486 74.9504C192.064 75.0526 191.634 75.1364 191.21 75.2124C190.096 75.4351 188.959 75.6814 187.992 76.2787C187.026 76.8761 186.242 77.8926 186.234 79.0297L186.58 81.7021L186.279 81.8567C185.824 82.0865 185.321 82.2039 184.812 82.1989C184.303 82.1939 183.802 82.0666 183.352 81.8279L169.773 74.615C169.484 74.446 169.237 74.213 169.052 73.9338C169.212 73.6847 169.43 73.478 169.686 73.3312Z" fill="#BA68C8"/>
<path opacity="0.2" d="M169.686 73.3312L179.527 68.2825L192.486 74.9504C192.064 75.0526 191.634 75.1364 191.21 75.2124C190.096 75.4351 188.959 75.6814 187.992 76.2787C187.026 76.8761 186.242 77.8926 186.234 79.0297L186.58 81.7021L186.279 81.8567C185.824 82.0865 185.321 82.2039 184.812 82.1989C184.303 82.1939 183.802 82.0666 183.352 81.8279L169.773 74.615C169.484 74.446 169.237 74.213 169.052 73.9338C169.212 73.6847 169.43 73.478 169.686 73.3312Z" fill="black"/>
<path d="M171.117 64.8894C171.117 64.8894 179.016 67.2134 181.107 65.1514C183.706 62.5996 182.619 56.1675 182.307 53.6523C181.995 51.1371 182.307 49.3921 183.004 48.6559C183.701 47.9197 184.709 46.8376 187.982 48.1922C184.673 49.8952 184.246 57.991 185.291 61.2424C182.697 63.9122 182.875 68.0544 182.826 69.9696C182.826 69.9696 176.077 71.6176 172.553 73.5538L171.117 64.8894Z" fill="#BA68C8"/>
<path opacity="0.1" d="M171.117 64.8894C171.117 64.8894 179.016 67.2134 181.107 65.1514C183.706 62.5996 182.619 56.1675 182.307 53.6523C181.995 51.1371 182.307 49.3921 183.004 48.6559C183.701 47.9197 184.709 46.8376 187.982 48.1922C184.673 49.8952 184.246 57.991 185.291 61.2424C182.697 63.9122 182.875 68.0544 182.826 69.9696C182.826 69.9696 176.077 71.6176 172.553 73.5538L171.117 64.8894Z" fill="white"/>
<path d="M172.55 73.5643L170.933 72.6919C170.933 68.2379 170.276 68.6859 169.052 66.9436C167.829 65.2013 169.705 64.1166 171.117 64.8895C172.529 65.6624 173.1 67.9942 172.55 73.5643Z" fill="#BA68C8"/>
<path opacity="0.2" d="M172.55 73.5643L170.933 72.6919C170.933 68.2379 170.276 68.6859 169.052 66.9436C167.829 65.2013 169.705 64.1166 171.117 64.8895C172.529 65.6624 173.1 67.9942 172.55 73.5643Z" fill="white"/>
<path d="M187.979 48.208C187.979 48.208 196.827 52.0411 201.137 54.1711L200.822 55.7431L186.708 49.3372C187.04 48.8688 187.475 48.4825 187.979 48.208Z" fill="#BA68C8"/>
<path opacity="0.1" d="M187.979 48.208C187.979 48.208 196.827 52.0411 201.137 54.1711L200.822 55.7431L186.708 49.3372C187.04 48.8688 187.475 48.4825 187.979 48.208Z" fill="white"/>
<path d="M185.288 61.253C184.398 58.4784 184.578 52.1747 186.709 49.3293L200.822 55.7352L197.597 71.9033L192.486 74.9503L182.823 69.9723C182.873 68.0597 182.695 63.928 185.288 61.253Z" fill="#BA68C8"/>
<path opacity="0.1" d="M185.288 61.253C184.398 58.4784 184.578 52.1747 186.709 49.3293L200.822 55.7352L197.597 71.9033L192.486 74.9503L182.823 69.9723C182.873 68.0597 182.695 63.928 185.288 61.253Z" fill="black"/>
<path d="M194.024 64.4938C193.785 64.3576 193.589 64.4676 193.589 64.7558C193.597 64.9056 193.64 65.0513 193.715 65.181C193.79 65.3108 193.895 65.421 194.021 65.5025C194.259 65.6414 194.456 65.5314 194.456 65.2563C194.45 65.104 194.407 64.9554 194.332 64.8228C194.257 64.6902 194.151 64.5774 194.024 64.4938Z" fill="#BA68C8"/>
<path d="M191.841 63.21C191.6 63.0738 191.406 63.1838 191.404 63.472C191.412 63.6221 191.455 63.7681 191.53 63.8982C191.606 64.0284 191.71 64.1391 191.836 64.2214C192.077 64.3576 192.271 64.2476 192.271 63.9725C192.265 63.8203 192.224 63.6716 192.149 63.5389C192.074 63.4062 191.969 63.2934 191.841 63.21Z" fill="#BA68C8"/>
<path d="M189.656 61.929C189.418 61.7901 189.221 61.9001 189.221 62.1752C189.229 62.3253 189.273 62.4713 189.348 62.6014C189.423 62.7316 189.528 62.8423 189.653 62.9246C189.892 63.0634 190.088 62.9508 190.088 62.6757C190.08 62.5259 190.037 62.3802 189.962 62.2505C189.887 62.1207 189.782 62.0105 189.656 61.929Z" fill="#BA68C8"/>
<path d="M187.471 60.6451C187.233 60.5063 187.039 60.6163 187.036 60.8914C187.044 61.0415 187.088 61.1874 187.163 61.3176C187.238 61.4478 187.343 61.5585 187.468 61.6407C187.709 61.7796 187.903 61.6669 187.903 61.3787C187.894 61.2311 187.85 61.0877 187.775 60.9602C187.7 60.8328 187.596 60.7248 187.471 60.6451Z" fill="#BA68C8"/>
<g opacity="0.2">
<path d="M194.024 64.494C193.785 64.3577 193.589 64.4678 193.589 64.756C193.597 64.9057 193.64 65.0514 193.715 65.1812C193.79 65.3109 193.895 65.4211 194.021 65.5027C194.259 65.6415 194.456 65.5315 194.456 65.2564C194.45 65.1041 194.407 64.9555 194.332 64.8229C194.257 64.6903 194.151 64.5775 194.024 64.494Z" fill="white"/>
<path d="M191.841 63.2102C191.6 63.0739 191.406 63.184 191.404 63.4722C191.412 63.6222 191.455 63.7682 191.53 63.8983C191.606 64.0285 191.71 64.1392 191.836 64.2215C192.077 64.3577 192.271 64.2477 192.271 63.9726C192.265 63.8204 192.224 63.6717 192.149 63.539C192.074 63.4063 191.969 63.2936 191.841 63.2102Z" fill="white"/>
<path d="M189.656 61.929C189.418 61.7901 189.221 61.9001 189.221 62.1752C189.229 62.3253 189.273 62.4713 189.348 62.6014C189.423 62.7316 189.528 62.8423 189.653 62.9246C189.892 63.0634 190.088 62.9508 190.088 62.6757C190.08 62.5259 190.037 62.3802 189.962 62.2505C189.887 62.1207 189.782 62.0105 189.656 61.929Z" fill="white"/>
<path d="M187.471 60.6451C187.233 60.5063 187.039 60.6163 187.036 60.8914C187.044 61.0415 187.088 61.1874 187.163 61.3176C187.238 61.4478 187.343 61.5585 187.468 61.6407C187.709 61.7796 187.903 61.6669 187.903 61.3787C187.894 61.2311 187.85 61.0877 187.775 60.9602C187.7 60.8328 187.596 60.7248 187.471 60.6451Z" fill="white"/>
</g>
<path d="M187.992 76.2891C188.959 75.6918 190.088 75.4455 191.21 75.2228C191.634 75.1363 192.064 75.0525 192.486 74.9608C193.172 74.8094 193.836 74.5671 194.458 74.2403C196.03 73.3783 197.065 71.767 197.568 70.0483C198.071 68.3296 198.092 66.5218 197.977 64.7402C197.862 62.9586 197.65 61.1822 197.715 59.4006C197.747 58.3526 197.904 57.2548 198.603 56.4898C199.303 55.7248 200.495 55.4575 201.553 55.6016C201.901 55.6503 202.244 55.7301 202.578 55.84L203.047 56.3902L202.869 57.0531L198.276 74.0124C197.956 75.1886 197.203 76.1998 196.167 76.842C196.049 76.9153 195.928 76.9861 195.803 77.0516L186.591 81.7152L186.245 79.0428C186.25 77.9031 187.036 76.8839 187.992 76.2891Z" fill="#BA68C8"/>
<path opacity="0.3" d="M187.992 76.2891C188.959 75.6918 190.088 75.4455 191.21 75.2228C191.634 75.1363 192.064 75.0525 192.486 74.9608C193.172 74.8094 193.836 74.5671 194.458 74.2403C196.03 73.3783 197.065 71.767 197.568 70.0483C198.071 68.3296 198.092 66.5218 197.977 64.7402C197.862 62.9586 197.65 61.1822 197.715 59.4006C197.747 58.3526 197.904 57.2548 198.603 56.4898C199.303 55.7248 200.495 55.4575 201.553 55.6016C201.901 55.6503 202.244 55.7301 202.578 55.84L203.047 56.3902L202.869 57.0531L198.276 74.0124C197.956 75.1886 197.203 76.1998 196.167 76.842C196.049 76.9153 195.928 76.9861 195.803 77.0516L186.591 81.7152L186.245 79.0428C186.25 77.9031 187.036 76.8839 187.992 76.2891Z" fill="black"/>
<path d="M187.979 74.4656C191.349 73.5067 194.66 73.3809 195.879 70.9601C197.097 68.5392 197.189 65.1961 196.575 59.3928C196.499 58.6441 196.517 57.8888 196.63 57.1448C196.989 54.9702 198.297 54.0427 199.801 54.0191C201.289 53.9982 202.729 54.5432 203.83 55.544C204.045 55.7223 204.216 55.9472 204.331 56.2016C204.385 56.3297 204.405 56.47 204.387 56.6081C204.37 56.7462 204.316 56.8771 204.231 56.9876C204.093 57.1299 203.905 57.2134 203.707 57.2208H203.678C203.475 57.223 203.274 57.1921 203.081 57.1291C203.002 57.1081 202.926 57.0819 202.85 57.0583C202.436 56.93 202.033 56.7754 201.611 56.6706C201.117 56.5265 200.591 56.5265 200.097 56.6706C199.86 56.7623 199.649 56.9085 199.479 57.0975C199.31 57.2864 199.187 57.5127 199.122 57.7579C197.702 62.3979 199.502 67.3838 197.904 71.2168C196.594 74.7014 192.08 76.1477 188.894 77.1826C189.2 77.0591 189.471 76.8599 189.68 76.6035C189.838 76.3573 189.911 76.066 189.889 75.7741C189.866 75.4822 189.748 75.2058 189.554 74.987C189.354 74.7774 189.106 74.6202 188.832 74.5293C188.557 74.4383 188.264 74.4165 187.979 74.4656Z" fill="#BA68C8"/>
<path opacity="0.1" d="M187.979 74.4656C191.349 73.5067 194.66 73.3809 195.879 70.9601C197.097 68.5392 197.189 65.1961 196.575 59.3928C196.499 58.6441 196.517 57.8888 196.63 57.1448C196.989 54.9702 198.297 54.0427 199.801 54.0191C201.289 53.9982 202.729 54.5432 203.83 55.544C204.045 55.7223 204.216 55.9472 204.331 56.2016C204.385 56.3297 204.405 56.47 204.387 56.6081C204.37 56.7462 204.316 56.8771 204.231 56.9876C204.093 57.1299 203.905 57.2134 203.707 57.2208H203.678C203.475 57.223 203.274 57.1921 203.081 57.1291C203.002 57.1081 202.926 57.0819 202.85 57.0583C202.436 56.93 202.033 56.7754 201.611 56.6706C201.117 56.5265 200.591 56.5265 200.097 56.6706C199.86 56.7623 199.649 56.9085 199.479 57.0975C199.31 57.2864 199.187 57.5127 199.122 57.7579C197.702 62.3979 199.502 67.3838 197.904 71.2168C196.594 74.7014 192.08 76.1477 188.894 77.1826C189.2 77.0591 189.471 76.8599 189.68 76.6035C189.838 76.3573 189.911 76.066 189.889 75.7741C189.866 75.4822 189.748 75.2058 189.554 74.987C189.354 74.7774 189.106 74.6202 188.832 74.5293C188.557 74.4383 188.264 74.4165 187.979 74.4656Z" fill="white"/>
<path d="M185.642 76.8498C185.84 76.3005 186.131 75.7898 186.504 75.3407C186.882 74.89 187.402 74.5814 187.979 74.4656C188.267 74.4136 188.564 74.4343 188.842 74.5258C189.12 74.6173 189.371 74.7767 189.572 74.9896C189.767 75.2084 189.884 75.4849 189.907 75.7767C189.93 76.0686 189.856 76.3599 189.698 76.6062C189.489 76.8625 189.219 77.0618 188.912 77.1852C188.658 77.2928 188.411 77.4144 188.17 77.5494C187.543 77.976 187.09 78.6153 186.897 79.3493C186.711 80.0774 186.613 80.8249 186.604 81.5763L186.591 81.7204L185.019 80.8453C184.943 79.4845 185.156 78.123 185.642 76.8498Z" fill="#BA68C8"/>
<path opacity="0.2" d="M185.642 76.8498C185.84 76.3005 186.131 75.7898 186.504 75.3407C186.882 74.89 187.402 74.5814 187.979 74.4656C188.267 74.4136 188.564 74.4343 188.842 74.5258C189.12 74.6173 189.371 74.7767 189.572 74.9896C189.767 75.2084 189.884 75.4849 189.907 75.7767C189.93 76.0686 189.856 76.3599 189.698 76.6062C189.489 76.8625 189.219 77.0618 188.912 77.1852C188.658 77.2928 188.411 77.4144 188.17 77.5494C187.543 77.976 187.09 78.6153 186.897 79.3493C186.711 80.0774 186.613 80.8249 186.604 81.5763L186.591 81.7204L185.019 80.8453C184.943 79.4845 185.156 78.123 185.642 76.8498Z" fill="white"/>
<path opacity="0.1" d="M204.328 56.1911C204.213 55.9407 204.043 55.7195 203.83 55.5439C203.064 54.85 202.126 54.3734 201.113 54.1632C196.796 52.0226 187.979 48.2079 187.979 48.2079C184.709 46.8534 183.701 47.9459 183.001 48.6717C182.302 49.3974 181.995 51.1502 182.304 53.668C182.613 56.1858 183.703 62.6153 181.104 65.1672C179.008 67.2186 171.114 64.9052 171.114 64.9052C169.702 64.1323 167.824 65.217 169.05 66.9593C170.276 68.7016 170.931 68.2693 170.931 72.7075L169.684 73.3468C169.426 73.4966 169.208 73.707 169.05 73.9599C168.287 75.1179 168.416 77.193 169.77 77.9659L183.35 85.1787C183.8 85.4175 184.3 85.5447 184.809 85.5497C185.319 85.5548 185.822 85.4374 186.276 85.2076L195.789 80.3894C196.392 80.0843 196.923 79.6561 197.349 79.1325C197.775 78.609 198.086 78.0017 198.263 77.3502L203.712 57.226C203.91 57.2186 204.098 57.1351 204.236 56.9928C204.323 56.8799 204.377 56.7458 204.393 56.6046C204.409 56.4634 204.387 56.3205 204.328 56.1911ZM197.922 74.9031C197.888 74.9712 197.849 75.0367 197.812 75.1022C197.851 75.0367 197.891 74.9712 197.925 74.9031H197.922ZM197.692 75.3092C197.644 75.3826 197.595 75.4533 197.545 75.524C197.597 75.4559 197.647 75.3826 197.694 75.3092H197.692ZM187.57 48.4516C187.487 48.5145 187.405 48.5773 187.324 48.6481C187.405 48.5852 187.487 48.5223 187.56 48.4699L187.57 48.4516ZM186.708 49.3214C186.646 49.4053 186.583 49.497 186.522 49.5834C186.658 49.3732 186.811 49.1743 186.978 48.9887C186.887 49.104 186.795 49.214 186.708 49.3293V49.3214ZM186.512 49.6122C186.452 49.7066 186.394 49.8009 186.336 49.9004C186.391 49.8009 186.449 49.7066 186.512 49.6122ZM186.334 49.9031C185.962 50.5644 185.671 51.2681 185.467 51.9991C185.669 51.2681 185.96 50.5643 186.331 49.9031H186.334ZM184.958 54.4802C184.943 54.606 184.93 54.7291 184.914 54.8522C184.94 54.7291 184.94 54.606 184.956 54.4802H184.958ZM184.906 54.9335C184.893 55.0514 184.882 55.1719 184.872 55.2924C184.88 55.1719 184.89 55.0514 184.903 54.9335H184.906ZM184.864 55.3736C184.864 55.4968 184.843 55.6199 184.835 55.7404C184.84 55.6199 184.851 55.4968 184.861 55.3736H184.864ZM184.835 55.7614C184.809 56.1439 184.793 56.5238 184.791 56.8985C184.791 56.5238 184.806 56.1439 184.833 55.7614H184.835ZM185.123 60.6346C185.123 60.5927 185.102 60.5481 185.095 60.5036C185.102 60.5481 185.113 60.5927 185.123 60.6346ZM185.05 60.2914C185.05 60.2442 185.032 60.197 185.024 60.1473C185.032 60.197 185.04 60.2442 185.05 60.2914ZM184.93 59.5316C184.93 59.4844 184.93 59.4372 184.909 59.3875C184.916 59.4372 184.922 59.4739 184.94 59.5316H184.93ZM184.869 59.0311C184.869 58.9735 184.869 58.9159 184.856 58.8582C184.861 58.9159 184.864 58.9735 184.869 59.0311ZM184.833 58.5884C184.833 58.5229 184.833 58.4521 184.833 58.384C184.825 58.4521 184.827 58.5229 184.833 58.5884ZM184.809 58.1692C184.809 58.0932 184.809 58.0172 184.809 57.9386C184.801 58.0172 184.804 58.0932 184.809 58.1639V58.1692ZM184.793 57.7395C184.793 57.6583 184.793 57.577 184.793 57.4932C184.788 57.577 184.791 57.6583 184.793 57.7395ZM196.468 76.6192C196.366 76.6952 196.258 76.7712 196.148 76.8393C196.266 76.7659 196.374 76.6952 196.468 76.6192ZM196.541 76.5668C196.633 76.496 196.72 76.4227 196.803 76.3467C196.73 76.4227 196.641 76.5039 196.549 76.5668H196.541ZM196.906 76.2576C196.982 76.1843 197.055 76.1109 197.126 76.0349C197.063 76.1109 196.992 76.1843 196.913 76.2576H196.906ZM198.045 74.6385C198.069 74.5835 198.095 74.5284 198.116 74.4734C198.095 74.5232 198.069 74.5782 198.04 74.6332L198.045 74.6385Z" fill="black"/>
<path d="M180.635 82.2391C182.202 81.5548 183.493 80.3647 184.303 78.8593C185.102 77.3659 185.501 76.0507 185.197 74.3818L172.998 69.5819C172.618 73.2132 169.283 75.5896 169.283 75.5896L180.635 82.2391Z" fill="#37474F"/>
<path d="M167.326 96.5575C167.326 97.54 167.36 98.9784 167.36 98.9784L168.015 99.0151C168.327 99.0317 168.627 99.14 168.878 99.3264C169.128 99.5128 169.319 99.7691 169.424 100.063L169.44 100.105C169.495 100.255 169.605 100.378 169.748 100.449C169.891 100.52 170.055 100.534 170.208 100.487C170.289 100.462 170.364 100.42 170.429 100.364C170.493 100.308 170.546 100.24 170.582 100.163L170.897 96.94L167.326 96.5575Z" fill="#FFA8A7"/>
<path d="M166.396 106.372C164.672 107.108 162.036 107.252 160.941 105.494V105.968C162.036 107.726 164.672 107.582 166.396 106.849C168.12 106.115 167.74 104.91 169.278 104.265C169.842 104.06 170.356 103.736 170.784 103.314C170.784 103.176 170.813 102.997 170.837 102.79C170.38 103.212 169.852 103.548 169.278 103.783C167.74 104.431 168.117 105.63 166.396 106.372Z" fill="#FAFAFA"/>
<path d="M170.842 101.229C170.772 100.894 170.772 100.548 170.842 100.212C170.862 100.136 170.865 100.056 170.852 99.9784C170.838 99.9007 170.808 99.8268 170.763 99.7617L170.624 99.6254L170.572 100.149C170.52 100.26 170.436 100.353 170.331 100.416C170.225 100.479 170.104 100.51 169.981 100.503C169.859 100.497 169.741 100.455 169.643 100.381C169.545 100.308 169.47 100.207 169.43 100.092L169.414 100.05C169.308 99.7559 169.118 99.4996 168.867 99.3132C168.616 99.1268 168.316 99.0185 168.004 99.0019L167.336 98.9652C167.237 98.9589 167.139 98.9838 167.055 99.0364C166.97 99.0891 166.905 99.1668 166.867 99.2586C166.178 100.917 164.452 102.759 163.121 103.6C162.141 103.579 160.93 104.386 160.93 105.376V105.476C162.025 107.234 164.661 107.09 166.385 106.354C168.109 105.617 167.729 104.417 169.267 103.77C169.842 103.535 170.37 103.199 170.826 102.777C170.904 102.264 170.91 101.743 170.842 101.229Z" fill="#BA68C8"/>
<path opacity="0.2" d="M170.842 101.229C170.772 100.894 170.772 100.548 170.842 100.212C170.862 100.136 170.865 100.056 170.852 99.9784C170.838 99.9007 170.808 99.8268 170.763 99.7617L170.624 99.6254L170.572 100.149C170.52 100.26 170.436 100.353 170.331 100.416C170.225 100.479 170.104 100.51 169.981 100.503C169.859 100.497 169.741 100.455 169.643 100.381C169.545 100.308 169.47 100.207 169.43 100.092L169.414 100.05C169.308 99.7559 169.118 99.4996 168.867 99.3132C168.616 99.1268 168.316 99.0185 168.004 99.0019L167.336 98.9652C167.237 98.9589 167.139 98.9838 167.055 99.0364C166.97 99.0891 166.905 99.1668 166.867 99.2586C166.178 100.917 164.452 102.759 163.121 103.6C162.141 103.579 160.93 104.386 160.93 105.376V105.476C162.025 107.234 164.661 107.09 166.385 106.354C168.109 105.617 167.729 104.417 169.267 103.77C169.842 103.535 170.37 103.199 170.826 102.777C170.904 102.264 170.91 101.743 170.842 101.229Z" fill="black"/>
<path opacity="0.25" d="M170.842 101.229C170.772 100.894 170.772 100.548 170.842 100.212C170.862 100.136 170.865 100.056 170.852 99.9784C170.838 99.9007 170.808 99.8268 170.763 99.7617L170.624 99.6254L170.572 100.149C170.52 100.26 170.436 100.353 170.331 100.416C170.225 100.479 170.104 100.51 169.981 100.503C169.859 100.497 169.741 100.455 169.643 100.381C169.545 100.308 169.47 100.207 169.43 100.092L169.414 100.05C169.308 99.7559 169.118 99.4996 168.867 99.3132C168.616 99.1268 168.316 99.0185 168.004 99.0019L167.336 98.9652C167.237 98.9589 167.139 98.9838 167.055 99.0364C166.97 99.0891 166.905 99.1668 166.867 99.2586C166.178 100.917 164.452 102.759 163.121 103.6C162.141 103.579 160.93 104.386 160.93 105.376V105.476C162.025 107.234 164.661 107.09 166.385 106.354C168.109 105.617 167.729 104.417 169.267 103.77C169.842 103.535 170.37 103.199 170.826 102.777C170.904 102.264 170.91 101.743 170.842 101.229Z" fill="white"/>
<path d="M167.509 102.589C167.548 102.627 167.599 102.65 167.653 102.653C167.708 102.656 167.761 102.639 167.803 102.605C167.846 102.571 167.874 102.522 167.883 102.468C167.891 102.414 167.879 102.359 167.85 102.314C167.592 101.969 167.25 101.697 166.856 101.524C166.462 101.351 166.03 101.283 165.602 101.326C165.507 101.441 165.416 101.554 165.319 101.664C165.733 101.615 166.152 101.674 166.536 101.836C166.92 101.998 167.256 102.258 167.509 102.589Z" fill="white"/>
<path d="M168.188 101.829C168.226 101.868 168.277 101.891 168.332 101.894C168.386 101.896 168.44 101.879 168.482 101.845C168.524 101.811 168.553 101.762 168.561 101.708C168.57 101.655 168.558 101.599 168.528 101.554C168.256 101.199 167.898 100.92 167.487 100.743C167.077 100.566 166.628 100.497 166.183 100.543C166.1 100.666 166.013 100.786 165.921 100.909C166.765 100.849 167.517 101.009 168.188 101.829Z" fill="white"/>
<path d="M166.804 103.33C166.822 103.352 166.844 103.371 166.869 103.384C166.894 103.398 166.922 103.406 166.95 103.409C166.979 103.412 167.007 103.409 167.034 103.4C167.062 103.392 167.087 103.378 167.108 103.359C167.153 103.324 167.182 103.272 167.189 103.216C167.196 103.159 167.18 103.103 167.145 103.058C166.893 102.721 166.56 102.454 166.177 102.28C165.794 102.107 165.374 102.032 164.955 102.065C164.842 102.183 164.729 102.295 164.617 102.405C165.03 102.358 165.449 102.419 165.832 102.581C166.215 102.743 166.55 103.001 166.804 103.33Z" fill="white"/>
<path d="M163.131 103.613C162.151 103.592 160.941 104.399 160.941 105.389V105.489C162.02 107.221 164.593 107.106 166.314 106.398C166.183 104.032 163.912 103.605 163.131 103.613Z" fill="white"/>
<path d="M166.076 104.04C166.114 104.076 166.163 104.097 166.214 104.1C166.266 104.102 166.317 104.087 166.358 104.055C166.4 104.023 166.428 103.978 166.439 103.927C166.449 103.877 166.441 103.824 166.417 103.778C166.165 103.441 165.832 103.172 165.448 102.999C165.065 102.825 164.643 102.751 164.224 102.785C164.085 102.908 163.949 103.024 163.812 103.131C164.653 103.063 165.405 103.228 166.076 104.04Z" fill="white"/>
<path d="M172.448 90.5603C172.312 92.7375 171.756 94.3148 171.329 97.2806C171.329 97.2806 168.725 98.0666 167.1 96.9243L167.035 92.355L172.448 90.5603Z" fill="#37474F"/>
<path d="M158.09 93.2327C157.873 94.1837 157.438 95.4518 157.438 95.4518L158.095 95.4885C158.407 95.5058 158.707 95.6143 158.958 95.8007C159.208 95.987 159.399 96.2429 159.505 96.5365L159.518 96.5784C159.572 96.7286 159.682 96.852 159.826 96.9228C159.969 96.9936 160.134 97.0063 160.286 96.9583C160.368 96.9335 160.443 96.8918 160.508 96.8358C160.572 96.7798 160.624 96.7109 160.66 96.6334L161.651 94.037L158.09 93.2327Z" fill="#FFA8A7"/>
<path d="M156.474 102.843C154.75 103.576 152.114 103.72 151.019 101.962V102.442C152.114 104.2 154.75 104.056 156.474 103.32C158.198 102.583 157.818 101.383 159.356 100.736C159.921 100.532 160.435 100.207 160.862 99.7852C160.862 99.6464 160.891 99.4708 160.915 99.2612C160.458 99.6829 159.93 100.02 159.356 100.257C157.818 100.904 158.195 102.107 156.474 102.843Z" fill="#FAFAFA"/>
<path d="M160.922 97.7024C160.851 97.3681 160.851 97.0227 160.922 96.6884C160.942 96.6121 160.946 96.5323 160.932 96.4545C160.919 96.3768 160.889 96.3029 160.844 96.2378L160.818 96.2011L160.653 96.6334C160.617 96.7108 160.564 96.7798 160.5 96.8358C160.435 96.8918 160.36 96.9335 160.278 96.9583C160.126 97.0063 159.961 96.9936 159.818 96.9228C159.675 96.852 159.564 96.7286 159.51 96.5784L159.497 96.5365C159.391 96.2428 159.201 95.987 158.95 95.8006C158.699 95.6143 158.399 95.5057 158.088 95.4885L157.42 95.4518C157.32 95.4463 157.221 95.4718 157.137 95.5248C157.052 95.5779 156.986 95.6558 156.948 95.7478C156.261 97.4037 154.532 99.2455 153.201 100.089C152.224 100.066 151.011 100.875 151.011 101.866V101.962C152.106 103.721 154.742 103.576 156.466 102.843C158.19 102.109 157.81 100.904 159.348 100.259C159.922 100.023 160.45 99.6856 160.907 99.2639C160.985 98.7467 160.99 98.221 160.922 97.7024Z" fill="#BA68C8"/>
<path opacity="0.2" d="M160.922 97.7024C160.851 97.3681 160.851 97.0227 160.922 96.6884C160.942 96.6121 160.946 96.5323 160.932 96.4545C160.919 96.3768 160.889 96.3029 160.844 96.2378L160.818 96.2011L160.653 96.6334C160.617 96.7108 160.564 96.7798 160.5 96.8358C160.435 96.8918 160.36 96.9335 160.278 96.9583C160.126 97.0063 159.961 96.9936 159.818 96.9228C159.675 96.852 159.564 96.7286 159.51 96.5784L159.497 96.5365C159.391 96.2428 159.201 95.987 158.95 95.8006C158.699 95.6143 158.399 95.5057 158.088 95.4885L157.42 95.4518C157.32 95.4463 157.221 95.4718 157.137 95.5248C157.052 95.5779 156.986 95.6558 156.948 95.7478C156.261 97.4037 154.532 99.2455 153.201 100.089C152.224 100.066 151.011 100.875 151.011 101.866V101.962C152.106 103.721 154.742 103.576 156.466 102.843C158.19 102.109 157.81 100.904 159.348 100.259C159.922 100.023 160.45 99.6856 160.907 99.2639C160.985 98.7467 160.99 98.221 160.922 97.7024Z" fill="black"/>
<path opacity="0.25" d="M160.922 97.7024C160.851 97.3681 160.851 97.0227 160.922 96.6884C160.942 96.6121 160.946 96.5323 160.932 96.4545C160.919 96.3768 160.889 96.3029 160.844 96.2378L160.818 96.2011L160.653 96.6334C160.617 96.7108 160.564 96.7798 160.5 96.8358C160.435 96.8918 160.36 96.9335 160.278 96.9583C160.126 97.0063 159.961 96.9936 159.818 96.9228C159.675 96.852 159.564 96.7286 159.51 96.5784L159.497 96.5365C159.391 96.2428 159.201 95.987 158.95 95.8006C158.699 95.6143 158.399 95.5057 158.088 95.4885L157.42 95.4518C157.32 95.4463 157.221 95.4718 157.137 95.5248C157.052 95.5779 156.986 95.6558 156.948 95.7478C156.261 97.4037 154.532 99.2455 153.201 100.089C152.224 100.066 151.011 100.875 151.011 101.866V101.962C152.106 103.721 154.742 103.576 156.466 102.843C158.19 102.109 157.81 100.904 159.348 100.259C159.922 100.023 160.45 99.6856 160.907 99.2639C160.985 98.7467 160.99 98.221 160.922 97.7024Z" fill="white"/>
<path d="M157.587 99.0622C157.625 99.0979 157.674 99.119 157.726 99.1217C157.777 99.1244 157.829 99.1086 157.87 99.0769C157.911 99.0453 157.939 99.0001 157.95 98.9493C157.961 98.8986 157.953 98.8457 157.928 98.8002C157.67 98.4556 157.328 98.1836 156.934 98.0105C156.54 97.8374 156.108 97.7692 155.68 97.8124C155.588 97.9251 155.494 98.0377 155.397 98.1478C155.81 98.098 156.229 98.1561 156.613 98.3163C156.996 98.4766 157.332 98.7335 157.587 99.0622Z" fill="white"/>
<path d="M158.266 98.3024C158.303 98.3457 158.356 98.3729 158.413 98.3783C158.47 98.3837 158.527 98.3668 158.572 98.3312C158.617 98.2957 158.645 98.244 158.652 98.1876C158.658 98.1311 158.642 98.0744 158.606 98.0299C158.335 97.6748 157.976 97.3952 157.566 97.2177C157.155 97.0403 156.706 96.9708 156.261 97.016C156.178 97.1391 156.091 97.2622 155.999 97.3828C156.843 97.3251 157.595 97.4823 158.266 98.3024Z" fill="white"/>
<path d="M156.882 99.8062C156.921 99.8448 156.972 99.8678 157.027 99.8708C157.081 99.8738 157.134 99.8565 157.177 99.8223C157.219 99.7881 157.247 99.7394 157.256 99.6856C157.264 99.6318 157.253 99.5768 157.223 99.5311C156.971 99.1944 156.639 98.9269 156.256 98.7537C155.872 98.5805 155.452 98.5072 155.033 98.5408C154.923 98.656 154.81 98.7713 154.697 98.8814C155.11 98.8332 155.529 98.8931 155.912 99.0552C156.295 99.2174 156.629 99.4761 156.882 99.8062Z" fill="white"/>
<path d="M153.209 100.084C152.232 100.06 151.019 100.87 151.019 101.86V101.957C152.098 103.689 154.671 103.574 156.395 102.866C156.261 100.506 153.99 100.084 153.209 100.084Z" fill="white"/>
<path d="M156.157 100.516C156.175 100.538 156.197 100.556 156.222 100.569C156.247 100.582 156.275 100.59 156.303 100.593C156.331 100.595 156.36 100.592 156.387 100.583C156.414 100.575 156.439 100.561 156.461 100.542C156.483 100.525 156.501 100.503 156.515 100.479C156.529 100.454 156.538 100.427 156.541 100.399C156.544 100.371 156.542 100.342 156.534 100.315C156.526 100.288 156.512 100.263 156.495 100.241C156.243 99.9038 155.91 99.6359 155.526 99.4627C155.143 99.2895 154.721 99.2165 154.302 99.2508C154.163 99.3713 154.027 99.4866 153.89 99.5966C154.731 99.5364 155.483 99.6962 156.157 100.516Z" fill="white"/>
<path d="M164.114 88.1185C163.611 90.2407 162.804 91.7 161.876 94.5506C161.876 94.5506 159.175 94.8755 157.768 93.4842L158.981 86.033L164.114 88.1185Z" fill="#37474F"/>
<path d="M131.371 72.7967V95.2711L132.165 94.8099V72.3356L131.371 72.7967Z" fill="#455A64"/>
<path d="M131.371 72.7967V95.2711L130.578 94.8099V72.3356L131.371 72.7967Z" fill="#37474F"/>
<path d="M132.165 78.7886L150.767 68.0492V67.1951L132.165 77.9344V78.7886Z" fill="#455A64"/>
<path d="M132.165 77.0332L149.971 66.7366L150.767 67.1951L132.165 77.9345V77.0332Z" fill="#37474F"/>
<path d="M187.51 82.8339V105.308L188.307 104.85V82.3754L187.51 82.8339Z" fill="#455A64"/>
<path d="M187.51 82.8339V105.308L186.716 104.85V82.3754L187.51 82.8339Z" fill="#37474F"/>
<path d="M168.117 94.0371V116.511L168.911 116.05V93.5759L168.117 94.0371Z" fill="#455A64"/>
<path d="M168.117 94.0371V116.511L167.32 116.05V93.5759L168.117 94.0371Z" fill="#37474F"/>
<path d="M168.911 100.029L187.51 89.2896V88.4381L168.911 99.1749V100.029Z" fill="#455A64"/>
<path d="M168.911 98.2735L186.716 87.9769L187.51 88.438L168.911 99.1748V98.2735Z" fill="#37474F"/>
<g opacity="0.2">
<path d="M187.51 82.8339V105.308L188.307 104.85V82.3754L187.51 82.8339Z" fill="white"/>
<path d="M187.51 82.8339V105.308L186.716 104.85V82.3754L187.51 82.8339Z" fill="white"/>
<path d="M168.117 94.0371V116.511L168.911 116.05V93.5759L168.117 94.0371Z" fill="white"/>
<path d="M168.117 94.0371V116.511L167.32 116.05V93.5759L168.117 94.0371Z" fill="white"/>
<path d="M168.911 100.029L187.51 89.2895V88.438L168.911 99.1748V100.029Z" fill="white"/>
<path d="M168.911 98.2735L186.716 87.9769L187.51 88.438L168.911 99.1748V98.2735Z" fill="white"/>
</g>
<g opacity="0.2">
<path d="M131.371 72.7966V95.2709L132.165 94.8098V72.3354L131.371 72.7966Z" fill="white"/>
<path d="M131.371 72.7966V95.2709L130.578 94.8098V72.3354L131.371 72.7966Z" fill="white"/>
<path d="M132.165 78.7886L150.767 68.0492V67.1951L132.165 77.9344V78.7886Z" fill="white"/>
<path d="M132.165 77.0332L149.971 66.7366L150.767 67.1951L132.165 77.9345V77.0332Z" fill="white"/>
</g>
<path d="M168.117 91.8651L130.575 70.2291L150.765 58.5675L188.307 80.2061L168.117 91.8651Z" fill="#455A64"/>
<path d="M168.117 94.0371L130.575 72.3356V70.2291L168.117 91.8651V94.0371Z" fill="#455A64"/>
<path d="M168.117 91.865L188.307 80.2034V82.3754L168.117 94.037V91.865Z" fill="#455A64"/>
<path opacity="0.3" d="M168.117 91.8651L130.575 70.2291L150.765 58.5675L188.307 80.2061L168.117 91.8651Z" fill="white"/>
<path opacity="0.1" d="M168.117 91.865L188.307 80.2034V82.3754L168.117 94.037V91.865Z" fill="white"/>
<path opacity="0.2" d="M168.117 94.0371L130.575 72.3356V70.2291L168.117 91.8651V94.0371Z" fill="white"/>
<path d="M152.649 63.7184L149.638 70.2999L141.781 69.0816L144.789 62.5001L152.649 63.7184Z" fill="#E6E6E6"/>
<path d="M155.599 64.9917L148.794 70.5408L142.163 67.8082L148.965 62.259L155.599 64.9917Z" fill="#F0F0F0"/>
<path d="M156.992 63.1394L161.067 67.2187L150.89 70.6195L146.811 66.5375L156.992 63.1394Z" fill="white"/>
<path d="M150.93 74.256L159.167 69.4667C159.429 69.3336 159.719 69.2643 160.013 69.2643C160.307 69.2643 160.597 69.3336 160.86 69.4667L174.46 77.3135C174.552 77.3559 174.633 77.4208 174.694 77.5023C174.755 77.5838 174.794 77.6792 174.808 77.7799V78.3039C174.812 78.3405 174.812 78.3774 174.808 78.4139C174.793 78.4544 174.774 78.493 174.751 78.5292C174.722 78.572 174.688 78.6107 174.649 78.6445C174.602 78.6859 174.551 78.7228 174.497 78.7545L166.22 83.578C166.145 83.6194 166.066 83.6536 165.984 83.6802L165.893 83.709L165.772 83.7378L165.625 83.764H165.591C165.526 83.764 165.458 83.764 165.39 83.764H165.358C165.29 83.764 165.225 83.764 165.159 83.764H165.13C165.065 83.764 164.999 83.7456 164.936 83.7325H164.902C164.846 83.7182 164.791 83.7007 164.737 83.6802H164.706C164.644 83.655 164.583 83.6261 164.525 83.5937L150.935 75.718C150.88 75.6868 150.828 75.65 150.78 75.6079C150.765 75.5948 150.754 75.5791 150.741 75.566C150.715 75.5418 150.692 75.5155 150.67 75.4874C150.66 75.472 150.651 75.4552 150.644 75.4376C150.628 75.4126 150.614 75.3863 150.602 75.359C150.601 75.3407 150.601 75.3223 150.602 75.304C150.6 75.2779 150.6 75.2515 150.602 75.2254V74.7433C150.61 74.6406 150.644 74.5417 150.701 74.4562C150.759 74.3708 150.838 74.3018 150.93 74.256Z" fill="#E0E0E0"/>
<path opacity="0.3" d="M174.798 77.7799C174.803 77.8301 174.798 77.8807 174.785 77.9293C174.77 77.9697 174.751 78.0083 174.727 78.0445V78.0576C174.698 78.099 174.663 78.1368 174.625 78.1703C174.578 78.2117 174.527 78.2486 174.473 78.2803L166.236 83.0671C166.161 83.1085 166.082 83.1427 166 83.1693L165.908 83.1981L165.788 83.2269C165.739 83.2384 165.69 83.2472 165.641 83.2531H165.607C165.542 83.2531 165.473 83.2531 165.405 83.2531H165.374C165.306 83.2531 165.24 83.2531 165.175 83.2531H165.146C165.08 83.2531 165.015 83.2321 164.952 83.219H164.918C164.862 83.2047 164.807 83.1872 164.753 83.1666H164.721C164.66 83.1415 164.599 83.1126 164.541 83.0802L150.951 75.2333C150.895 75.2022 150.844 75.1653 150.796 75.1232C150.782 75.1106 150.769 75.0965 150.757 75.0813C150.731 75.0577 150.707 75.0314 150.686 75.0027C150.675 74.9873 150.667 74.9706 150.66 74.9529C150.644 74.9279 150.63 74.9016 150.618 74.8743C150.617 74.856 150.617 74.8376 150.618 74.8193C150.615 74.7932 150.615 74.7669 150.618 74.7407V75.2228C150.615 75.2489 150.615 75.2753 150.618 75.3014C150.617 75.3197 150.617 75.3381 150.618 75.3564C150.63 75.3837 150.644 75.41 150.66 75.435C150.667 75.4526 150.675 75.4694 150.686 75.4848C150.707 75.5129 150.731 75.5392 150.757 75.5634C150.77 75.5765 150.78 75.5922 150.796 75.6053C150.844 75.6474 150.895 75.6842 150.951 75.7154L164.525 83.578C164.583 83.6104 164.644 83.6393 164.706 83.6644H164.737C164.791 83.685 164.846 83.7025 164.902 83.7168H164.936C164.999 83.7168 165.065 83.7404 165.13 83.7483H165.159C165.225 83.7483 165.29 83.7483 165.358 83.7483H165.39C165.458 83.7483 165.526 83.7483 165.591 83.7483H165.625L165.772 83.7221L165.893 83.6933L165.984 83.6644C166.066 83.6379 166.145 83.6037 166.22 83.5623L174.46 78.7781C174.514 78.7464 174.565 78.7095 174.612 78.6681C174.651 78.6343 174.685 78.5956 174.714 78.5528C174.737 78.5166 174.757 78.478 174.772 78.4375C174.776 78.401 174.776 78.3641 174.772 78.3275V77.8035L174.798 77.7799Z" fill="black"/>
<path d="M151.734 74.7434L164.939 82.3676C164.955 82.3773 164.973 82.3852 164.991 82.3911H165.02C165.053 82.4046 165.087 82.4151 165.122 82.4226L165.196 82.4357H165.245C165.28 82.4357 165.319 82.4357 165.374 82.4357C165.419 82.4391 165.465 82.4391 165.51 82.4357L165.597 82.4226L165.704 82.3938C165.736 82.3834 165.766 82.3702 165.796 82.3545L170.053 79.91L156.413 72.0238L151.734 74.7434Z" fill="#E0E0E0"/>
<path d="M164.297 72.6473L161.811 74.1092C161.776 74.1333 161.747 74.1655 161.727 74.2032C161.707 74.2409 161.697 74.2828 161.697 74.3254C161.697 74.368 161.707 74.4099 161.727 74.4476C161.747 74.4852 161.776 74.5175 161.811 74.5415L165.526 76.6873C165.589 76.7239 165.66 76.7432 165.733 76.7432C165.806 76.7432 165.877 76.7239 165.94 76.6873L168.424 75.228C168.459 75.204 168.488 75.1716 168.509 75.1337C168.529 75.0958 168.539 75.0535 168.539 75.0105C168.539 74.9675 168.529 74.9252 168.509 74.8873C168.488 74.8494 168.459 74.817 168.424 74.793L164.708 72.6473C164.646 72.6112 164.575 72.5922 164.503 72.5922C164.43 72.5922 164.36 72.6112 164.297 72.6473Z" fill="#E0E0E0"/>
<path opacity="0.2" d="M151.734 74.7434L164.939 82.3676C164.955 82.3773 164.973 82.3852 164.991 82.3911H165.02C165.053 82.4046 165.087 82.4151 165.122 82.4226L165.196 82.4357H165.245C165.28 82.4357 165.319 82.4357 165.374 82.4357C165.419 82.4391 165.465 82.4391 165.51 82.4357L165.597 82.4226L165.704 82.3938C165.736 82.3834 165.766 82.3702 165.796 82.3545L170.053 79.91L156.413 72.0238L151.734 74.7434Z" fill="black"/>
<path opacity="0.2" d="M164.297 72.6473L161.811 74.1092C161.776 74.1333 161.747 74.1655 161.727 74.2032C161.707 74.2409 161.697 74.2828 161.697 74.3254C161.697 74.368 161.707 74.4099 161.727 74.4476C161.747 74.4852 161.776 74.5175 161.811 74.5415L165.526 76.6873C165.589 76.7239 165.66 76.7432 165.733 76.7432C165.806 76.7432 165.877 76.7239 165.94 76.6873L168.424 75.228C168.459 75.204 168.488 75.1716 168.509 75.1337C168.529 75.0958 168.539 75.0535 168.539 75.0105C168.539 74.9675 168.529 74.9252 168.509 74.8873C168.488 74.8494 168.459 74.817 168.424 74.793L164.708 72.6473C164.646 72.6112 164.575 72.5922 164.503 72.5922C164.43 72.5922 164.36 72.6112 164.297 72.6473Z" fill="black"/>
<path d="M170.844 61.1429L169.183 65.3349L162.633 68.0362C162.236 68.1993 161.806 68.2658 161.378 68.23L158.855 68.0231C158.559 68 158.264 68.0696 158.009 68.2222L156.565 69.0973C156.42 69.1854 156.29 69.297 156.18 69.4274L155.473 70.2658C155.425 70.3213 155.389 70.3864 155.368 70.4567C155.346 70.527 155.34 70.6009 155.349 70.6738C155.358 70.7467 155.383 70.8168 155.421 70.8797C155.459 70.9426 155.51 70.9967 155.57 71.0387L156.015 71.3583C156.249 71.5272 156.526 71.6283 156.814 71.6504C157.102 71.6726 157.39 71.6151 157.647 71.4841L158.764 70.9208L161.072 71.1828V71.788L160.443 72.312C160.369 72.3753 160.309 72.4543 160.269 72.5433C160.229 72.6322 160.209 72.729 160.21 72.8266C160.212 72.9242 160.235 73.0203 160.278 73.108C160.321 73.1957 160.383 73.2728 160.459 73.3338C160.459 73.3338 162.002 72.8779 163.398 70.6378L171.602 68.906C172.062 68.8085 172.491 68.5941 172.845 68.2835C173.199 67.9729 173.467 67.5765 173.624 67.1323L175.196 62.6783L170.844 61.1429Z" fill="#FFA8A7"/>
<path d="M175.361 54.0348C174.245 53.9091 173.569 53.9562 172.511 55.7352C171.227 57.8915 169.998 62.0232 169.998 62.0232C172.464 63.2284 175.361 63.4249 175.361 63.4249C175.987 61.8477 175.361 54.0348 175.361 54.0348Z" fill="#BA68C8"/>
<g opacity="0.3">
<path d="M175.361 54.0348C174.245 53.9091 173.569 53.9562 172.511 55.7352C171.227 57.8915 169.998 62.0232 169.998 62.0232C172.464 63.2284 175.361 63.4249 175.361 63.4249C175.987 61.8477 175.361 54.0348 175.361 54.0348Z" fill="white"/>
</g>
<path d="M184.364 55.9947C180.855 54.3493 178.228 54.1607 175.361 54.0349C171.07 56.7964 172.676 59.0968 172.741 62.7857C172.804 65.893 173.383 67.9655 172.036 70.8317L180.352 75.6263C182.765 75.5975 184.702 75.029 185.488 74.5285C186.591 64.321 186.268 56.7807 184.364 55.9947Z" fill="#BA68C8"/>
<path opacity="0.5" d="M184.364 55.9947C180.855 54.3493 178.228 54.1607 175.361 54.0349C171.07 56.7964 172.676 59.0968 172.741 62.7857C172.804 65.893 173.383 67.9655 172.036 70.8317L180.352 75.6263C182.765 75.5975 184.702 75.029 185.488 74.5285C186.591 64.321 186.268 56.7807 184.364 55.9947Z" fill="white"/>
<path d="M180.892 65.5995L179.844 70.2369L172.626 73.2132C172.189 73.3926 171.716 73.4662 171.245 73.428L168.465 73.2001C168.139 73.1724 167.813 73.2485 167.533 73.4176L165.94 74.3817C165.779 74.479 165.636 74.6021 165.515 74.7459L164.729 75.6681C164.677 75.7298 164.639 75.8016 164.616 75.8789C164.593 75.9562 164.587 76.0374 164.597 76.1174C164.607 76.1974 164.633 76.2744 164.675 76.3436C164.716 76.4128 164.771 76.4728 164.837 76.5196L165.327 76.8707C165.585 77.0561 165.889 77.1671 166.206 77.1916C166.523 77.216 166.84 77.1531 167.124 77.0096L168.355 76.3886L170.375 76.7554C171.289 76.9197 172.232 76.7643 173.045 76.3153L173.47 76.0795L182.278 74.2193C182.843 74.1 183.362 73.8215 183.773 73.4166C184.184 73.0117 184.471 72.4974 184.599 71.9346L185.786 66.8099L180.892 65.5995Z" fill="#FFA8A7"/>
<path d="M184.364 55.9946C188.556 57.5666 187.607 61.2974 186.056 67.2081C183.559 67.8998 180.601 65.7252 180.601 65.7252C181.421 61.0459 181.733 55.9212 184.364 55.9946Z" fill="#BA68C8"/>
<path opacity="0.3" d="M184.364 55.9946C188.556 57.5666 187.607 61.2974 186.056 67.2081C183.559 67.8998 180.601 65.7252 180.601 65.7252C181.421 61.0459 181.733 55.9212 184.364 55.9946Z" fill="white"/>
<path d="M148.711 64.659L149.036 64.4966C149.094 64.472 149.157 64.4614 149.22 64.4655C149.284 64.4695 149.345 64.4883 149.4 64.5201L163.084 72.4771C163.296 72.6002 163.479 72.7693 163.617 72.9719C163.756 73.1746 163.848 73.4056 163.886 73.6482L165.29 82.5955C165.304 82.6829 165.289 82.7723 165.247 82.8504C165.206 82.9284 165.14 82.9907 165.059 83.0278L164.742 83.1824C164.685 83.2047 164.624 83.2137 164.562 83.2087C164.501 83.2037 164.442 83.1848 164.389 83.1536L150.715 75.194C150.503 75.0707 150.32 74.9016 150.182 74.699C150.043 74.4964 149.951 74.2654 149.913 74.0229L148.506 65.0756C148.494 64.9936 148.507 64.9097 148.543 64.8352C148.58 64.7608 148.638 64.6993 148.711 64.659Z" fill="#E0E0E0"/>
<path d="M156.175 72.8359C156.522 73.0529 156.821 73.338 157.054 73.6739C157.287 74.0099 157.45 74.3898 157.532 74.7905C157.621 75.49 157.16 75.7494 156.497 75.3669C156.151 75.1489 155.852 74.8632 155.619 74.5269C155.386 74.1906 155.223 73.8106 155.14 73.4097C155.051 72.7233 155.515 72.4639 156.175 72.8359Z" fill="white"/>
<path opacity="0.3" d="M165.028 82.7318L163.621 73.7871C163.583 73.5441 163.491 73.3127 163.353 73.1096C163.214 72.9066 163.032 72.737 162.819 72.6133L149.135 64.659C149.073 64.6224 149.002 64.6031 148.929 64.6031C148.857 64.6031 148.786 64.6224 148.724 64.659L149.049 64.4966C149.107 64.472 149.17 64.4614 149.234 64.4655C149.297 64.4695 149.358 64.4883 149.413 64.5201L163.097 72.4771C163.31 72.6002 163.492 72.7693 163.63 72.9719C163.769 73.1746 163.861 73.4056 163.899 73.6482L165.29 82.5955C165.304 82.6829 165.289 82.7723 165.247 82.8504C165.206 82.9284 165.14 82.9907 165.059 83.0278L164.742 83.1824C164.836 83.1535 164.916 83.0922 164.968 83.0097C165.021 82.9271 165.042 82.8286 165.028 82.7318Z" fill="black"/>
<path d="M172.888 49.6254C172.265 49.1783 171.833 48.5145 171.675 47.7645C171.517 47.0145 171.645 46.2326 172.034 45.5722C171.685 45.418 171.399 45.1489 171.224 44.8098C171.151 44.6463 171.129 44.4645 171.16 44.288C171.191 44.1116 171.275 43.9486 171.4 43.8203C171.525 43.6921 171.686 43.6044 171.862 43.5687C172.037 43.5331 172.22 43.5511 172.385 43.6204C172.293 43.3551 172.293 43.0668 172.384 42.8014C172.476 42.5361 172.653 42.3088 172.888 42.1558C173.126 42.0231 173.402 41.9767 173.67 42.0245C173.938 42.0722 174.181 42.2112 174.358 42.4178C174.354 42.2455 174.404 42.0764 174.503 41.9351C174.601 41.7937 174.742 41.6875 174.905 41.6318C175.244 41.5434 175.602 41.5664 175.927 41.6973C176.255 41.8099 176.564 41.9593 176.894 42.0772C177.463 42.2185 178.047 42.2933 178.634 42.2999C179.222 42.3048 179.8 42.458 180.313 42.7453C180.803 43.0649 181.238 43.809 180.973 44.4483C181.057 44.3413 181.162 44.2531 181.283 44.1895C181.403 44.1258 181.535 44.0881 181.67 44.0789C181.804 44.0753 181.938 44.1006 182.061 44.153C182.184 44.2054 182.295 44.2838 182.386 44.3828C182.019 44.6107 181.665 44.8544 181.301 45.0797C181.668 44.9146 182.218 45.174 182.417 45.5251C182.588 45.8932 182.655 46.3006 182.613 46.7041C182.563 48.2416 182.288 49.7634 181.796 51.221C181.547 51.9729 181.186 52.7694 180.486 53.1179L172.888 49.6254Z" fill="#37474F"/>
<path d="M176.766 53.2462L176.928 55.0435C176.935 55.1827 176.899 55.3207 176.826 55.4391C176.727 55.6273 176.689 55.8416 176.717 56.0524C176.745 56.2632 176.838 56.46 176.983 56.6155C177.216 56.7875 177.498 56.8794 177.787 56.8775C178.333 56.9072 178.879 56.8212 179.389 56.6252C179.899 56.4293 180.362 56.1278 180.748 55.7404C180.826 55.6587 180.888 55.5621 180.928 55.4564C180.969 55.3507 180.988 55.2379 180.984 55.1247L180.866 50.5659L176.766 53.2462Z" fill="#FFA8A7"/>
<path opacity="0.3" d="M180.515 50.8018L176.766 53.2462L176.91 54.8392C177.78 54.6348 178.657 54.3833 179.346 53.8226C179.781 53.4597 180.117 52.9919 180.322 52.4634C180.526 51.9349 180.592 51.3631 180.515 50.8018Z" fill="black"/>
<path d="M172.681 45.9207C172.407 48.0056 172.544 50.1241 173.085 52.1563C173.188 52.6047 173.355 53.0361 173.58 53.4375C173.806 53.8417 174.162 54.1574 174.591 54.3335C175.115 54.5326 175.707 54.4357 176.263 54.3335C177.282 54.1554 178.325 53.9667 179.207 53.4296C180.09 52.8925 180.793 51.9284 180.706 50.8987C180.957 51.0547 181.244 51.145 181.539 51.1615C181.834 51.178 182.129 51.1201 182.396 50.993C182.657 50.8496 182.879 50.6435 183.04 50.3934C183.202 50.1433 183.3 49.8569 183.323 49.5599C183.363 48.9835 183.03 48.3416 182.464 48.2289C182.289 48.2035 182.111 48.2158 181.941 48.265C181.771 48.3143 181.613 48.3993 181.479 48.5145C181.213 48.7473 180.982 49.0173 180.793 49.3162C180.705 49.4611 180.588 49.5861 180.449 49.683C180.38 49.731 180.298 49.7568 180.214 49.7568C180.129 49.7568 180.047 49.731 179.978 49.683C179.917 49.6116 179.873 49.5273 179.85 49.4365C179.827 49.3457 179.825 49.2508 179.844 49.159L179.902 47.849C179.905 47.7492 179.879 47.6505 179.828 47.5646C179.777 47.4787 179.703 47.4092 179.614 47.3643C179.344 47.2174 179.137 46.9784 179.029 46.691C178.934 46.4392 178.878 46.174 178.864 45.905C178.86 45.8546 178.845 45.8058 178.819 45.7626C178.792 45.7194 178.757 45.6829 178.714 45.6562C178.671 45.6294 178.622 45.6131 178.572 45.6085C178.522 45.6039 178.471 45.6113 178.424 45.6299C176.671 46.353 174.489 46.374 172.681 45.9207Z" fill="#FFA8A7"/>
<path d="M175.553 49.0857L174.379 51.0612L175.778 51.3232L175.553 49.0857Z" fill="#F28F8F"/>
<path d="M177.127 52.0044L176.063 52.5284C176.155 52.6493 176.283 52.7372 176.428 52.7788C176.574 52.8204 176.729 52.8134 176.87 52.759C176.993 52.6815 177.085 52.5644 177.132 52.4271C177.179 52.2897 177.177 52.1406 177.127 52.0044Z" fill="#F28F8F"/>
<path opacity="0.3" d="M177.127 52.0044L176.063 52.5284C176.155 52.6493 176.283 52.7372 176.428 52.7788C176.574 52.8204 176.729 52.8134 176.87 52.759C176.993 52.6815 177.085 52.5644 177.132 52.4271C177.179 52.2897 177.177 52.1406 177.127 52.0044Z" fill="black"/>
<path d="M176.501 52.7851C176.625 52.8112 176.754 52.7993 176.87 52.751C176.967 52.6957 177.046 52.613 177.096 52.5133C177.147 52.4136 177.167 52.3013 177.153 52.1904C176.989 52.1866 176.83 52.2463 176.708 52.357C176.587 52.4678 176.512 52.6211 176.501 52.7851Z" fill="#F28F8F"/>
<path d="M177.578 49.1643C177.585 49.2431 177.569 49.3223 177.531 49.3919C177.494 49.4615 177.437 49.5185 177.367 49.5556C177.297 49.5927 177.217 49.6083 177.139 49.6004C177.06 49.5925 176.985 49.5615 176.924 49.5113C176.863 49.4611 176.818 49.3939 176.795 49.3182C176.772 49.2425 176.772 49.1617 176.795 49.0859C176.818 49.0101 176.862 48.9428 176.923 48.8925C176.984 48.8421 177.059 48.8109 177.138 48.8028C177.244 48.7925 177.35 48.8248 177.432 48.8926C177.515 48.9604 177.567 49.0581 177.578 49.1643Z" fill="#263238"/>
<path d="M174.198 49.3712C174.206 49.45 174.19 49.5294 174.153 49.5993C174.116 49.6693 174.059 49.7266 173.989 49.7641C173.919 49.8016 173.84 49.8176 173.761 49.81C173.682 49.8025 173.607 49.7717 173.546 49.7216C173.484 49.6716 173.439 49.6045 173.416 49.5287C173.393 49.453 173.392 49.3721 173.415 49.2962C173.438 49.2203 173.482 49.1528 173.543 49.1023C173.604 49.0517 173.679 49.0204 173.758 49.0123C173.81 49.0068 173.863 49.0118 173.914 49.0269C173.965 49.042 174.012 49.067 174.052 49.1003C174.093 49.1337 174.127 49.1748 174.152 49.2213C174.177 49.2677 174.193 49.3187 174.198 49.3712Z" fill="#263238"/>
<path d="M173.658 47.8202L172.833 48.5224C172.784 48.4165 172.768 48.2981 172.787 48.1829C172.807 48.0677 172.861 47.9613 172.943 47.8778C173.045 47.8026 173.166 47.7574 173.292 47.7472C173.419 47.737 173.546 47.7623 173.658 47.8202Z" fill="#263238"/>
<path d="M177.08 47.422L178.028 47.946C178.056 47.8324 178.048 47.713 178.006 47.6039C177.964 47.4948 177.889 47.4012 177.793 47.3356C177.678 47.2822 177.55 47.262 177.424 47.2773C177.298 47.2926 177.179 47.3427 177.08 47.422Z" fill="#263238"/>
</svg>
