<svg width="36" height="24" viewBox="0 0 36 24" fill="none" xmlns="http://www.w3.org/2000/svg">
<path d="M0.896307 23V1.18182H15.598V4.98508H5.50923V10.1839H14.8416V13.9872H5.50923V19.1967H15.6406V23H0.896307ZM31.1014 7.45668C31.0162 6.5973 30.6504 5.92969 30.0041 5.45383C29.3578 4.97798 28.4806 4.74006 27.3727 4.74006C26.6199 4.74006 25.9842 4.84659 25.4657 5.05966C24.9473 5.26562 24.5495 5.55327 24.2725 5.92258C24.0027 6.2919 23.8677 6.71094 23.8677 7.17969C23.8535 7.57031 23.9352 7.91122 24.1127 8.20241C24.2974 8.49361 24.5495 8.74574 24.8691 8.95881C25.1887 9.16477 25.5581 9.34588 25.9771 9.50213C26.3961 9.65128 26.8436 9.77912 27.3194 9.88565L29.2797 10.3544C30.2314 10.5675 31.1049 10.8516 31.9004 11.2067C32.6958 11.5618 33.3848 11.9986 33.9672 12.517C34.5495 13.0355 35.0005 13.6463 35.3201 14.3494C35.6468 15.0526 35.8137 15.8587 35.8208 16.7678C35.8137 18.103 35.4728 19.2607 34.7981 20.2408C34.1305 21.2138 33.1646 21.9702 31.9004 22.5099C30.6433 23.0426 29.127 23.3089 27.3514 23.3089C25.59 23.3089 24.0559 23.0391 22.7491 22.4993C21.4494 21.9595 20.4338 21.1605 19.7022 20.1023C18.9778 19.0369 18.5978 17.7195 18.5623 16.1499H23.0261C23.0758 16.8814 23.2853 17.4922 23.6547 17.9822C24.0311 18.4652 24.5318 18.831 25.1568 19.0795C25.7889 19.321 26.5027 19.4418 27.2981 19.4418C28.0794 19.4418 28.7576 19.3281 29.3329 19.1009C29.9153 18.8736 30.3663 18.5575 30.6859 18.1527C31.0055 17.7479 31.1653 17.2827 31.1653 16.7571C31.1653 16.267 31.0197 15.8551 30.7285 15.5213C30.4444 15.1875 30.0254 14.9034 29.4714 14.669C28.9245 14.4347 28.2534 14.2216 27.4579 14.0298L25.0822 13.4332C23.2427 12.9858 21.7903 12.2862 20.725 11.3345C19.6596 10.3828 19.1305 9.10085 19.1376 7.48864C19.1305 6.16761 19.4821 5.01349 20.1923 4.02628C20.9096 3.03906 21.8933 2.26847 23.1433 1.71449C24.3933 1.16051 25.8137 0.883522 27.4047 0.883522C29.024 0.883522 30.4373 1.16051 31.6447 1.71449C32.8592 2.26847 33.8038 3.03906 34.4785 4.02628C35.1532 5.01349 35.5012 6.15696 35.5225 7.45668H31.1014Z" fill="white"/>
</svg>
